<svg width="137" height="46" xmlns="http://www.w3.org/2000/svg">
  <g opacity="0.47">
    <g id="Group_25" data-name="Group 25" transform="translate(66.629 0.425)">
      <path id="Path_19" data-name="Path 19" d="M120.977,79.886h-6.323c-.753,0-1.656.3-2.108-.6s.3-1.506.9-2.108a2.469,2.469,0,0,0,1.054-1.807c-.753-.3-1.355.151-2.108.151-.753.151-1.656.6-1.957-.452a1.774,1.774,0,0,1,.9-2.258,6.53,6.53,0,0,1,3.463-.753c3.162.3,6.323.3,9.485.6.753,0,1.957-.151,1.807,1.2a1.726,1.726,0,0,1-1.957,1.506h-5.42c-.9,0-1.807.3-1.957,1.2,0,1.2,1.2.753,1.807.753.452,0,.9.151,1.2,0,1.807-1.506,2.71-.3,3.463,1.054.3.6.6.753,1.355.6a8.012,8.012,0,0,0,5.27-4.818c.452-.9.452-1.506-.9-1.2-.9.151-1.957,0-2.108-1.2C126.7,70.7,127.6,70.4,128.5,70.25c1.355-.151,1.957-.9,2.258-2.258a9.21,9.21,0,0,1,.753-1.807,1.282,1.282,0,0,1,1.656-.753,1.125,1.125,0,0,1,.753,1.506c-.6,3.162-.151,3.463,3.162,3.312a7.507,7.507,0,0,1,3.613.452c1.2.452,1.656,1.506.6,2.409-1.355,1.2-1.355,2.861-1.506,4.366a2.7,2.7,0,0,1-.6,2.108c-.753.753-1.355,1.506-2.409,1.054-1.2-.6-.6-1.506-.452-2.409a16.971,16.971,0,0,0,.452-2.71c.151-1.355-.151-2.559-1.656-2.861-1.355-.3-2.71-.452-3.613,1.355a16.989,16.989,0,0,1-9.485,9.335c-2.258.9-4.216.3-6.173-.151a1.3,1.3,0,1,1,.452-2.56A8.945,8.945,0,0,0,120.977,79.886Z" transform="translate(-110.325 -38.746)"/>
      <path id="Path_20" data-name="Path 20" d="M134.285,54.8c-.753-.151-1.957-.3-3.312-.6s-2.108.3-2.108,1.656c-.151,1.807.452,3.613.6,5.42.151.753.3,1.506-.6,1.807-1.2.3-1.054-1.054-1.355-1.506a7.087,7.087,0,0,1-.6-2.409c-.452-4.667-1.656-5.872-5.27-4.667-.452.151-.753.452-1.2.452-.753.151-1.807.753-2.108-.3a1.729,1.729,0,0,1,1.506-2.258,18.222,18.222,0,0,1,2.861-.151,54.732,54.732,0,0,1,13.1.753c.6.151,1.656-.151,1.656.753a1.485,1.485,0,0,1-1.506,1.355C135.489,54.8,135.489,54.8,134.285,54.8Z" transform="translate(-106.319 -45.426)"/>
      <path id="Path_21" data-name="Path 21" d="M110.6,61.242a14.889,14.889,0,0,1,3.613-1.355c1.957-.753,3.613-1.656,4.216-3.915.3-1.355-.151-2.108-1.656-1.656-.6.151-1.054.3-1.656.452s-1.355.3-1.506-.6c-.151-.753-.3-1.656.9-1.807a30.008,30.008,0,0,1,5.119-.753c1.506-.151,1.656.6,1.506,2.258a35.667,35.667,0,0,1-1.355,5.42A5.55,5.55,0,0,1,110.6,61.242Z" transform="translate(-110.186 -45.697)"/>
      <path id="Path_22" data-name="Path 22" d="M118.02,66.213l3.613.452c.6.151,1.355.3,1.355,1.054a1.349,1.349,0,0,1-1.355,1.355,13.368,13.368,0,0,1-3.463.151c-1.506,0-3.011-.753-4.517.151a.631.631,0,0,1-.9-.452,1.475,1.475,0,0,1,.452-1.807C114.106,66.363,115.31,66.062,118.02,66.213Z" transform="translate(-109.175 -38.322)"/>
      <path id="Path_23" data-name="Path 23" d="M126.7,51.309a37.823,37.823,0,0,0-4.065.6c-.9.151-1.656.452-2.108-.753-.3-1.054.452-1.506,1.2-1.807a4.332,4.332,0,0,1,2.409-.452c2.409.3,4.818,0,7.076.452.452.151,1.2.151,1.054.9a1.164,1.164,0,0,1-1.2,1.054Z" transform="translate(-105.203 -47.056)"/>
      <path id="Path_24" data-name="Path 24" d="M118.232,47.913c.9.151,2.258-.452,2.409.6s-.9,1.957-1.957,2.258a30.835,30.835,0,0,1-3.613.753c-1.355.3-1.656-.452-1.2-1.506C114.468,47.762,116.576,48.214,118.232,47.913Z" transform="translate(-108.634 -47.574)"/>
      <g id="Group_23" data-name="Group 23" transform="translate(36.319 24.692)">
        <path id="Path_25" data-name="Path 25" d="M162.831,80.222c-.3-.3-.9-.3-1.2-.452-1.506-.753-3.312-1.054-4.517-2.409.151-.151.3-.3.452-.3.753-.753,2.71-.6,2.108-2.108s-2.108-.6-3.312-.452a.526.526,0,0,0-.3.151c-.452.151-.6,0-1.054-.3-1.2-1.355-.452-1.957.9-2.56a1.141,1.141,0,0,1-.3-.6h0c-.151,0-.151-.151-.3-.151-.452,0-1.054,0-1.054-.6,0-.3.6-.151,1.054-.151h0c.753-.3,1.656-.6,1.506-1.506s-1.2-.753-1.957-.9a4.48,4.48,0,0,1-2.258-.753,8.637,8.637,0,0,1,1.054-.6c.6-.3,1.506-.452,1.2-1.355a1.754,1.754,0,0,0-2.108-1.054,3.124,3.124,0,0,0-1.506.9,8.285,8.285,0,0,1-4.517,2.409c0-.753.753-1.355-.151-1.807-1.054-.452-2.108-1.2-3.463-.6-.6.3-1.054.6-.9,1.355,0,.753.6.6,1.2.753.3.151.9-.151,1.054.6-1.807.3-4.065,0-4.216,2.861a2.562,2.562,0,0,1,1.054.151,3.415,3.415,0,0,1,.6.151c0,.3-.3.452-.6.6-.452.9-.753,2.108-2.108.6-.452-.6-1.2-.151-1.355.6-.151.6-.3,1.355.151,1.807s1.054.3,1.656,0c.452-.3,1.054-.3,1.2.151.151.6-.452.753-.9.753-1.957,0-2.409,1.054-2.409,2.71a3.01,3.01,0,0,0,1.957-.3h0c.151-.3.3-.753.753-.753a.526.526,0,0,1,.3.151c0,.3-.3.452-.6.6a2.844,2.844,0,0,1-1.957,1.054l-2.258.452c-.9.151-1.506.6-1.2,1.506.151.9.6,1.807,1.807,1.506a22.87,22.87,0,0,1,3.011-.9c1.2-.3,2.258-2.861,3.915-.3.3.452,1.355-.151,1.957-.3a32.578,32.578,0,0,1,5.42,0c.6,0,1.054-.151,1.2-.753,0-.452-.452-.6-.753-.6-.452-.151-1.2,0-1.2-.6,0-.753.753-.6,1.2-.753,1.355-.452.6-1.656.753-2.56s-.9-.6-1.506-.6c-.452,0-1.355.3-1.054-.452.452-1.054,1.807-.151,2.56-.753.452-.3.452,0,.6.3,1.054,1.957,2.258,4.065.9,6.323a5.737,5.737,0,0,0-.452,1.506.631.631,0,0,0,.452.9c.3.151.6-.151.753-.452.452-.753.9-1.506,1.506-2.409a3.285,3.285,0,0,1,.753.6c1.807,1.054,3.463,2.258,5.571,2.559,1.506.3,2.861-.3,3.162-1.506C165.09,80.523,163.584,80.674,162.831,80.222Zm-13.7-10.238h2.108v.151h-2.108ZM146.722,73.9a.648.648,0,0,1,.6.6c-.151.452-.452.452-.753.3a.679.679,0,0,1-.452-.452C145.969,74.049,146.27,73.9,146.722,73.9Zm-3.915,5.119s-.452-.151-.452-.3a2.671,2.671,0,0,1,.753-2.559l.151-.151h0c-.151-1.054-.9-2.108-.151-3.463a8.762,8.762,0,0,1,.452,3.915C143.861,77.512,143.861,78.416,142.807,79.018Zm1.656-8.281c-.151,0-.3-.151-.452-.3a.782.782,0,0,1,.6-.3c.151,0,.3.151.6.3C144.915,70.586,144.764,70.737,144.463,70.737Zm1.807,8.13a.4.4,0,0,1-.452-.452.631.631,0,0,1,.9-.452c.3,0,.452.3.452.6C147.023,78.867,146.722,78.867,146.27,78.867Zm.6-2.409a1.649,1.649,0,0,1,1.656-.151C148.077,76.759,147.474,76.609,146.872,76.458Zm1.506-4.667a6.115,6.115,0,0,1,2.861,0C150.034,72.544,149.432,72.092,148.378,71.791Z" transform="translate(-134.448 -64.075)"/>
        <path id="Path_26" data-name="Path 26" d="M148.865,69.676c.6.3,1.2.452,1.807.753a1.118,1.118,0,0,0,1.656-.6c.3-.753-.452-1.054-.9-1.355-1.2-.753-1.807.753-2.861.6h0C148.112,69.375,148.564,69.525,148.865,69.676Z" transform="translate(-127.408 -61.96)"/>
      </g>
      <g id="Group_24" data-name="Group 24" transform="translate(38.317)">
        <path id="Path_27" data-name="Path 27" d="M158.547,57.047c.9-1.656,0-1.656-1.054-1.807a29.614,29.614,0,0,1-3.613-.452c-1.807-.452-2.108-1.2-.753-2.409a3.2,3.2,0,0,0,1.054-2.258c-.151-.151-.452-.151-.6-.3a7.358,7.358,0,0,0-3.613-.151c-1.054.3-2.409.6-3.011-1.2a1.557,1.557,0,0,0-2.71,0,3.073,3.073,0,0,1-2.258,1.807,1.278,1.278,0,0,0-1.054,1.2c0,.6.753.753,1.2.753.9.151,1.957.151,1.807,1.506s-1.355.9-2.108.9a15.809,15.809,0,0,0-5.27,1.2,1.427,1.427,0,0,0-.753,1.656c.151.6.6.753,1.054.452,1.807-.6,3.764-.151,5.571-.9,1.054-.452,1.506-.151,1.355,1.054a18.386,18.386,0,0,0,.151,4.065c0,.6-.452,1.656.753,1.656s1.656-.753,1.506-1.807a25.752,25.752,0,0,1,0-4.818,1.2,1.2,0,0,1,1.355-1.355c1.957.151,3.915.3,6.022.6,1.957.151,2.71,1.506,2.71,3.162.151,1.656-1.054,2.258-2.56,2.258-1.054,0-.753.753-.452,1.054,1.355,1.2,2.861.6,4.216.3.9-.151,1.355-1.054,1.2-2.258C158.246,59.908,157.794,58.252,158.547,57.047Zm-9.485-4.366c-.151,1.2-1.054,1.506-2.108,1.656-.753.151-.9-.452-.9-1.054,0-1.054.6-1.656,1.807-1.506C148.46,51.778,149.213,51.778,149.062,52.681Z" transform="translate(-135.775 -47.675)"/>
        <path id="Path_28" data-name="Path 28" d="M148.052,49.933a5.566,5.566,0,0,0,3.162.9c.6,0,.9-.3,1.2-.9a1.137,1.137,0,0,0-.151-1.2,3.145,3.145,0,0,0-4.667.9C147.751,49.331,147.9,49.632,148.052,49.933Z" transform="translate(-129.796 -47.486)"/>
      </g>
    </g>
    <g id="Group_26" data-name="Group 26" transform="translate(36.813 23.15)">
      <path id="Path_29" data-name="Path 29" d="M101.631,70.193c-1.656,3.915-3.011,7.076-4.366,10.238-.452.9-.753,2.108-1.957,1.957-1.355-.151-1.656-1.355-1.957-2.409-.9-2.71-.6-5.571-.6-8.281,0-2.258.151-4.667-1.656-6.474-.6-.6-.9-1.506,0-2.108,1.054-.9,1.656.151,2.108.9,1.506,2.409,1.506,5.119,1.957,7.829.3,1.355-.151,2.861,1.054,4.065,1.656-2.559,1.957-5.571,3.312-8.281.452-.9.6-2.108,1.807-2.108,1.355,0,1.506,1.355,1.957,2.409.753,1.957.6,4.366,2.409,6.323.9-2.861,1.506-5.571,2.861-7.98.452-.753.6-1.957,1.807-1.656,1.355.3,1.355,1.506,1.2,2.71A55.627,55.627,0,0,1,106.9,79.98a1.518,1.518,0,0,1-1.656,1.054c-.753-.151-1.054-.9-1.2-1.506A64.508,64.508,0,0,1,101.631,70.193Z" transform="translate(-90.521 -62.769)"/>
    </g>
    <g id="Group_27" data-name="Group 27">
      <path id="Path_30" data-name="Path 30" d="M76.955,72.1c.6-4.818,4.216-8.732,3.915-13.851,0-.151,0-.6.151-.6,2.258-.452,1.506-2.56,2.258-3.915,1.2-1.957,3.312-2.56,4.517-.151A22.607,22.607,0,0,1,90.054,59.9a30.938,30.938,0,0,0,3.463,10.087,49.951,49.951,0,0,1,3.312-12.2,56.892,56.892,0,0,1,2.559-5.27c.452-1.054.9-2.409,2.409-1.807a3.435,3.435,0,0,1,2.409,3.312,13.935,13.935,0,0,1-.6,3.463,105.19,105.19,0,0,1-8.431,21.982,2.461,2.461,0,0,1-2.71,1.656c-1.355-.151-1.656-1.2-1.957-2.258-1.054-5.119-2.108-10.238-3.312-15.206-.151-.6,0-1.656-.9-1.656s-.9,1.054-1.054,1.656a92.865,92.865,0,0,1-7.227,17.465c-.6,1.054-1.054,2.861-2.71,2.71-1.807-.151-2.409-1.656-3.162-3.011a25.881,25.881,0,0,1-1.807-9.485c-.151-3.463,0-6.775-.151-10.238,0-3.162-.3-6.323-3.011-8.732a5.842,5.842,0,0,1-.9-1.656c-.6-1.355.3-2.258,1.2-3.011s1.807,0,2.409.753c2.861,3.011,3.162,7.076,3.764,10.84.452,2.71.6,5.571,1.054,8.431C75.148,69.084,75.3,70.74,76.955,72.1Z" transform="translate(-66.07 -47.393)"/>
    </g>
  </g>
  <g id="Group_34" data-name="Group 34" transform="translate(2.71 0.452)">
    <g id="Group_31" data-name="Group 31" transform="translate(66.629 0.274)">
      <path id="Path_31" data-name="Path 31" d="M122.777,80.086h-6.323c-.753,0-1.656.3-2.108-.6s.3-1.506.9-2.108a2.469,2.469,0,0,0,1.054-1.807c-.753-.3-1.355.151-2.108.151-.753.151-1.656.6-1.957-.452a1.775,1.775,0,0,1,.9-2.258,6.53,6.53,0,0,1,3.463-.753c3.162.3,6.323.3,9.485.6.753,0,1.957-.151,1.807,1.2a1.726,1.726,0,0,1-1.957,1.506h-5.42c-.9,0-1.807.3-1.957,1.2,0,1.2,1.2.753,1.807.753.452,0,.9.151,1.2,0,1.807-1.506,2.71-.3,3.463,1.054.3.6.6.753,1.355.6a8.012,8.012,0,0,0,5.27-4.818c.452-.9.452-1.506-.9-1.2-.9.151-1.957,0-2.108-1.2C128.5,70.9,129.4,70.6,130.3,70.45c1.355-.151,1.957-.9,2.258-2.258a9.21,9.21,0,0,1,.753-1.807,1.282,1.282,0,0,1,1.656-.753,1.125,1.125,0,0,1,.753,1.506c-.6,3.162-.151,3.463,3.162,3.312a7.507,7.507,0,0,1,3.613.452c1.2.452,1.656,1.506.6,2.409-1.355,1.2-1.355,2.861-1.506,4.366a2.7,2.7,0,0,1-.6,2.108c-.753.753-1.355,1.506-2.409,1.054-1.2-.6-.6-1.506-.452-2.409a16.968,16.968,0,0,0,.452-2.71c.151-1.355-.151-2.559-1.656-2.861-1.355-.3-2.71-.452-3.613,1.355a16.989,16.989,0,0,1-9.485,9.335c-2.258.9-4.216.3-6.173-.151a1.3,1.3,0,1,1,.452-2.56A9.164,9.164,0,0,0,122.777,80.086Z" transform="translate(-112.125 -38.946)" fill="#fff"/>
      <path id="Path_32" data-name="Path 32" d="M136.085,55c-.753-.151-1.957-.3-3.312-.6s-2.108.3-2.108,1.656c-.151,1.807.452,3.613.6,5.42.151.753.3,1.506-.6,1.807-1.2.3-1.054-1.054-1.355-1.506a7.087,7.087,0,0,1-.6-2.409c-.452-4.667-1.656-5.872-5.27-4.667-.452.151-.753.452-1.2.452-.753.151-1.807.753-2.108-.3a1.729,1.729,0,0,1,1.506-2.258,18.221,18.221,0,0,1,2.861-.151,54.731,54.731,0,0,1,13.1.753c.6.151,1.656-.151,1.656.753a1.485,1.485,0,0,1-1.506,1.355C137.289,55,137.139,55,136.085,55Z" transform="translate(-108.119 -45.626)" fill="#fff"/>
      <path id="Path_33" data-name="Path 33" d="M112.3,61.542a14.889,14.889,0,0,1,3.613-1.355c1.957-.753,3.613-1.656,4.216-3.915.3-1.355-.151-2.108-1.656-1.656-.6.151-1.054.3-1.656.452s-1.355.3-1.506-.6c-.151-.753-.3-1.656.9-1.807a30.009,30.009,0,0,1,5.119-.753c1.506-.151,1.656.6,1.506,2.258a35.668,35.668,0,0,1-1.355,5.42C120.129,63.2,115.01,64.4,112.3,61.542Z" transform="translate(-112.037 -45.846)" fill="#fff"/>
      <path id="Path_34" data-name="Path 34" d="M119.82,66.413l3.613.452c.6.151,1.355.3,1.355,1.054a1.349,1.349,0,0,1-1.355,1.355,13.368,13.368,0,0,1-3.463.151c-1.506,0-3.011-.753-4.517.151a.631.631,0,0,1-.9-.452A1.475,1.475,0,0,1,115,67.316C115.755,66.563,117.11,66.262,119.82,66.413Z" transform="translate(-110.975 -38.522)" fill="#fff"/>
      <path id="Path_35" data-name="Path 35" d="M128.4,51.509a37.823,37.823,0,0,0-4.065.6c-.9.151-1.656.452-2.108-.753-.3-1.054.452-1.506,1.2-1.807a4.332,4.332,0,0,1,2.409-.452c2.409.3,4.818,0,7.076.452.452.151,1.2.151,1.054.9a1.164,1.164,0,0,1-1.2,1.054A42.206,42.206,0,0,1,128.4,51.509Z" transform="translate(-107.054 -47.256)" fill="#fff"/>
      <path id="Path_36" data-name="Path 36" d="M120.032,48.213c.9.151,2.258-.452,2.409.6s-.9,1.957-1.957,2.258a30.836,30.836,0,0,1-3.613.753c-1.355.3-1.656-.452-1.2-1.506C116.268,47.912,118.225,48.363,120.032,48.213Z" transform="translate(-110.434 -47.723)" fill="#fff"/>
      <g id="Group_29" data-name="Group 29" transform="translate(36.319 24.692)">
        <path id="Path_37" data-name="Path 37" d="M164.631,80.422c-.3-.3-.9-.3-1.2-.452-1.506-.753-3.312-1.054-4.517-2.409.151-.151.3-.3.452-.3.753-.753,2.71-.6,2.108-2.108s-2.108-.6-3.312-.452a.526.526,0,0,0-.3.151c-.452.151-.6,0-1.054-.3-1.2-1.355-.452-1.957.9-2.56a1.141,1.141,0,0,1-.3-.6h0c-.151,0-.151-.151-.3-.151-.452,0-1.054,0-1.054-.6,0-.3.6-.151,1.054-.151h0c.753-.3,1.656-.6,1.506-1.506s-1.2-.753-1.957-.9a4.48,4.48,0,0,1-2.258-.753,8.639,8.639,0,0,1,1.054-.6c.6-.3,1.506-.452,1.2-1.355a1.754,1.754,0,0,0-2.108-1.054,3.124,3.124,0,0,0-1.506.9,8.285,8.285,0,0,1-4.517,2.409c0-.753.753-1.355-.151-1.807-1.054-.452-2.108-1.2-3.463-.6-.6.3-1.054.6-.9,1.355,0,.753.6.6,1.2.753.3.151.9-.151,1.054.6-1.807.3-4.065,0-4.216,2.861a2.562,2.562,0,0,1,1.054.151,3.415,3.415,0,0,1,.6.151c0,.3-.3.452-.6.6-.452.9-.753,2.108-2.108.6-.452-.6-1.2-.151-1.355.6-.151.6-.3,1.355.151,1.807s1.054.3,1.656,0c.452-.3,1.054-.3,1.2.151.151.6-.452.753-.9.753-1.957,0-2.409,1.054-2.409,2.71a3.01,3.01,0,0,0,1.957-.3h0c.151-.3.3-.753.753-.753a.526.526,0,0,1,.3.151c0,.3-.3.452-.6.6a2.844,2.844,0,0,1-1.957,1.054l-2.258.452c-.9.151-1.506.6-1.2,1.506.151.9.6,1.807,1.807,1.506a22.867,22.867,0,0,1,3.011-.9c1.2-.3,2.258-2.861,3.915-.3.3.452,1.355-.151,1.957-.3a32.577,32.577,0,0,1,5.42,0c.6,0,1.054-.151,1.2-.753,0-.452-.452-.6-.753-.6-.452-.151-1.2,0-1.2-.6,0-.753.753-.6,1.2-.753,1.355-.452.6-1.656.753-2.559s-.9-.6-1.506-.6c-.452,0-1.355.3-1.054-.452.452-1.054,1.807-.151,2.56-.753.452-.3.452,0,.6.3,1.054,1.957,2.258,4.065.9,6.323a5.736,5.736,0,0,0-.452,1.506.631.631,0,0,0,.452.9c.3.151.6-.151.753-.452.452-.753.9-1.506,1.506-2.409a3.285,3.285,0,0,1,.753.6c1.807,1.054,3.463,2.258,5.571,2.559,1.506.3,2.861-.3,3.162-1.506C166.89,80.723,165.234,80.874,164.631,80.422Zm-13.7-10.238h2.108v.151h-2.108C150.78,70.335,150.78,70.335,150.931,70.184Zm-2.56,3.915a.648.648,0,0,1,.6.6c-.151.452-.452.452-.753.3a.679.679,0,0,1-.452-.452C147.618,74.249,147.919,74.1,148.371,74.1Zm-3.915,5.27s-.452-.151-.452-.3a2.671,2.671,0,0,1,.753-2.559l.151-.151h0c-.151-1.054-.9-2.108-.151-3.463a8.762,8.762,0,0,1,.452,3.915A1.972,1.972,0,0,1,144.456,79.368Zm1.807-8.431c-.151,0-.3-.151-.452-.3a.782.782,0,0,1,.6-.3c.151,0,.3.151.6.3C146.564,70.786,146.414,70.937,146.263,70.937Zm1.807,8.13a.4.4,0,0,1-.452-.452.631.631,0,0,1,.9-.452c.3,0,.452.3.452.6C148.823,79.218,148.371,79.067,148.07,79.067Zm.452-2.409a1.649,1.649,0,0,1,1.656-.151C149.726,76.959,149.124,76.809,148.522,76.658Zm1.656-4.667a6.115,6.115,0,0,1,2.861,0A2.465,2.465,0,0,1,150.178,71.991Z" transform="translate(-136.248 -64.275)" fill="#fff"/>
        <path id="Path_38" data-name="Path 38" d="M150.565,69.976c.6.3,1.2.452,1.807.753a1.118,1.118,0,0,0,1.656-.6c.3-.753-.452-1.054-.9-1.355-1.2-.753-1.807.753-2.861.6h0C149.812,69.524,150.264,69.675,150.565,69.976Z" transform="translate(-129.258 -62.11)" fill="#fff"/>
      </g>
      <g id="Group_30" data-name="Group 30" transform="translate(38.166)">
        <path id="Path_39" data-name="Path 39" d="M160.247,57.247c.9-1.656,0-1.656-1.054-1.807a29.613,29.613,0,0,1-3.613-.452c-1.807-.452-2.108-1.2-.753-2.409a3.2,3.2,0,0,0,1.054-2.258c-.151-.151-.452-.151-.6-.3a7.358,7.358,0,0,0-3.613-.151c-1.054.3-2.409.6-3.011-1.2a1.557,1.557,0,0,0-2.71,0,3.073,3.073,0,0,1-2.258,1.807,1.278,1.278,0,0,0-1.054,1.2c0,.6.753.753,1.2.753.9.151,1.957.151,1.807,1.506s-1.355.9-2.108.9a15.81,15.81,0,0,0-5.27,1.2,1.427,1.427,0,0,0-.753,1.656c.151.6.6.753,1.054.452,1.807-.6,3.764-.151,5.571-.9,1.054-.452,1.506-.151,1.355,1.054a18.385,18.385,0,0,0,.151,4.065c0,.6-.452,1.656.753,1.656s1.656-.753,1.506-1.807a25.752,25.752,0,0,1,0-4.818,1.2,1.2,0,0,1,1.355-1.355c1.957.151,3.915.3,6.022.6,1.957.151,2.71,1.506,2.71,3.162.151,1.656-1.054,2.258-2.559,2.258-1.054,0-.753.753-.452,1.054,1.355,1.2,2.861.6,4.216.3.9-.151,1.355-1.054,1.2-2.258A4.993,4.993,0,0,1,160.247,57.247Zm-9.485-4.216c-.151,1.2-1.054,1.506-2.108,1.656-.753.151-.9-.452-.9-1.054,0-1.054.6-1.656,1.807-1.506C150.16,51.978,150.913,52.128,150.762,53.032Z" transform="translate(-137.475 -47.875)" fill="#fff"/>
        <path id="Path_40" data-name="Path 40" d="M149.752,50.133a5.566,5.566,0,0,0,3.162.9c.6,0,.9-.3,1.2-.9a1.137,1.137,0,0,0-.151-1.2,3.145,3.145,0,0,0-4.667.9C149.6,49.531,149.752,49.832,149.752,50.133Z" transform="translate(-131.496 -47.686)" fill="#fff"/>
      </g>
    </g>
    <g id="Group_32" data-name="Group 32" transform="translate(36.662 22.999)">
      <path id="Path_41" data-name="Path 41" d="M103.331,70.393c-1.656,3.915-3.011,7.076-4.366,10.238-.452.9-.753,2.108-1.957,1.957-1.355-.151-1.656-1.355-1.957-2.409-.9-2.71-.6-5.571-.6-8.281,0-2.258.151-4.667-1.656-6.474-.6-.6-.9-1.506,0-2.108,1.054-.9,1.656.151,2.108.9,1.506,2.409,1.506,5.119,1.957,7.829.3,1.355-.151,2.861,1.054,4.065,1.656-2.559,1.957-5.571,3.312-8.281.452-.9.6-2.108,1.807-2.108,1.355,0,1.506,1.355,1.957,2.409.753,1.957.6,4.366,2.409,6.323.9-2.861,1.506-5.571,2.861-7.98.452-.753.6-1.957,1.807-1.656,1.355.3,1.355,1.506,1.2,2.71A55.627,55.627,0,0,1,108.6,80.18a1.518,1.518,0,0,1-1.656,1.054c-.753-.151-1.054-.9-1.2-1.506A64.51,64.51,0,0,1,103.331,70.393Z" transform="translate(-92.221 -62.969)" fill="#fff"/>
    </g>
    <g id="Group_33" data-name="Group 33">
      <path id="Path_42" data-name="Path 42" d="M78.755,72.4c.6-4.818,4.216-8.732,3.915-13.851,0-.151,0-.6.151-.6,2.258-.452,1.506-2.56,2.258-3.915,1.2-1.957,3.312-2.56,4.517-.151A22.607,22.607,0,0,1,91.854,60.2a30.938,30.938,0,0,0,3.463,10.087,49.951,49.951,0,0,1,3.312-12.2,56.889,56.889,0,0,1,2.559-5.27c.452-1.054.9-2.409,2.409-1.807a3.435,3.435,0,0,1,2.409,3.312,13.934,13.934,0,0,1-.6,3.463,105.189,105.189,0,0,1-8.431,21.982,2.461,2.461,0,0,1-2.71,1.656c-1.355-.151-1.656-1.2-1.957-2.258-1.054-5.119-2.108-10.238-3.312-15.206-.151-.6,0-1.656-.9-1.656s-.9,1.054-1.054,1.656a92.864,92.864,0,0,1-7.227,17.465c-.6,1.054-1.054,2.861-2.71,2.71-1.807-.151-2.409-1.656-3.162-3.011a25.881,25.881,0,0,1-1.807-9.485c-.151-3.463,0-6.775-.151-10.238,0-3.162-.3-6.323-3.011-8.732a5.842,5.842,0,0,1-.9-1.656c-.6-1.355.3-2.258,1.2-3.011s1.807,0,2.409.753c2.861,3.011,3.162,7.076,3.764,10.84.452,2.71.6,5.571,1.054,8.431A7.224,7.224,0,0,0,78.755,72.4Z" transform="translate(-67.87 -47.693)" fill="#fff"/>
    </g>
  </g>
</svg>