<svg xmlns="http://www.w3.org/2000/svg" width="201" height="62" viewBox="0 0 201.2 62.4"><g opacity="0.8"><clipPath><rect width="201.2" height="62.4"/></clipPath><path d="M170 62.4H31.2c-17.2 0-31.2-14.1-31.2-31.2 0-17.2 14-31.2 31.2-31.2h138.8c17.2 0 31.2 14 31.2 31.2C201.2 48.4 187.2 62.4 170 62.4" style="clip-path:url(#SVGID_2_);fill:#3BB8B2"/></g><path d="M2.6 31.3c0-16.8 13.6-30.4 30.4-30.4 16.8 0 30.4 13.6 30.4 30.4 0 16.8-13.6 30.4-30.4 30.4C16.2 61.6 2.6 48 2.6 31.3" fill="#FFF"/><circle cx="33" cy="31.3" r="30.4" style="fill:none;stroke-width:3;stroke:#E3C34F"/><path d="M30.3 14.7v16.6c0 1.9 3 1.9 3 0V14.7C33.3 12.8 30.3 12.7 30.3 14.7" fill="#6DA5A3"/><path d="M36 33.7h10.1c1.9 0 1.9-3 0-3H36C34.1 30.7 34.1 33.7 36 33.7" fill="#6DA5A3"/><path d="M36.4 32.2c0 2.5-2.1 4.6-4.6 4.6s-4.6-2.1-4.6-4.6 2.1-4.6 4.6-4.6S36.4 29.6 36.4 32.2" fill="#213749"/></svg>
