<svg xmlns="http://www.w3.org/2000/svg" xmlns:xlink="http://www.w3.org/1999/xlink" width="96" height="96" viewBox="0 0 96 96">
	<ellipse id="Ellipse_240" data-name="Ellipse 240" cx="48.136" cy="48.136" rx="48.136" ry="48.136" fill="#dbb7ca"/>
      <g id="Group_475" data-name="Group 475" transform="translate(15.629 11.882)">
        <path id="Path_832" data-name="Path 832" d="M-160.029,329.436l10.435-3.3c1.171,3.194-1.65,4.206-1.119,8.145.214,1.491,1.332,1.065,1.97,2.715l.16,4.046,3.353,2.663c.479,1.277-1.117,2.767-1.117,2.767s-3.513,3.994-6.016,3.568C-155.876,349.507-160.029,329.436-160.029,329.436Z" transform="translate(178.115 -281.948)" fill="#3e4e5c"/>
        <path id="Path_833" data-name="Path 833" d="M-150.713,334.1c-.478-3.779,1.97-4.844,1.226-7.666l-6.5,1.545-4.046,1.277s.107.586.372,1.6l9.157,3.834A1.5,1.5,0,0,1-150.713,334.1Z" transform="translate(178.115 -281.765)" fill="#323e4a"/>
        <path id="Path_834" data-name="Path 834" d="M-167.169,317.965l5.644-2.024a39.755,39.755,0,0,0,2.662,11.021c1.65,4.472,3.62,8.2,5.216,10.062l-5.642,2.024c-3.834,1.384-8.678-2.236-10.862-8.04C-172.333,325.152-171,319.349-167.169,317.965Z" transform="translate(171.2 -288.258)" fill="#3e4e5c"/>
        <path id="Path_835" data-name="Path 835" d="M-130.922,326.067c-4.525-12.191-6.016-23.158-3.727-26.139a8.788,8.788,0,0,0-1.117,1.384c-3.78,5.589-10.116,17.621-31.836,25.394v.053c-1.331.479-.586,5.8,1.65,11.819,2.236,6.068,5.111,10.593,6.442,10.114,21.721-7.771,34.5-2.395,41.1-.531a4.194,4.194,0,0,0,3.248-.16C-118.624,349.332-125.864,339.589-130.922,326.067Z" transform="translate(173.018 -298.171)" fill="#5992bd"/>
        <path id="Path_836" data-name="Path 836" d="M-135.657,305.051c.531-3.248.691-3.886.905-4.9l.052-.16a10.763,10.763,0,0,0-1.01,1.277c-3.834,5.59-10.169,17.623-31.89,25.4v.052c-.533.214-.746,1.172-.64,2.61l1.757-.533C-146.466,321.715-139.6,310.96-135.657,305.051Z" transform="translate(173.016 -298.13)" fill="#63a3d2"/>
        <path id="Path_837" data-name="Path 837" d="M-145.375,299c-4.206,1.545-3.62,13.948,1.331,27.684,4.9,13.736,12.3,23.638,16.5,22.041,4.206-1.544,3.62-13.949-1.331-27.683S-141.224,297.457-145.375,299Z" transform="translate(185.449 -298.842)" fill="#487190"/>
        <path id="Path_838" data-name="Path 838" d="M-138.774,332.008c-4.9-13.734-5.484-26.139-1.331-27.684a3.6,3.6,0,0,1,3.034.479c-3.087-4.311-6.121-6.6-8.3-5.8-4.206,1.545-3.62,13.948,1.331,27.684,3.886,10.86,9.316,19.273,13.469,21.562A67.553,67.553,0,0,1-138.774,332.008Z" transform="translate(185.449 -298.842)" fill="#426885"/>
        <path id="Path_839" data-name="Path 839" d="M-146.18,312.752a5.453,5.453,0,0,0-.531.214c.479,1.757,1.064,3.513,1.7,5.377.958,2.662,2.022,5.218,3.141,7.559a3.4,3.4,0,0,0,.426-.159,7,7,0,0,0,4.153-8.892A6.925,6.925,0,0,0-146.18,312.752Z" transform="translate(186.359 -290.499)" fill="#ebedee"/>
        <path id="Path_840" data-name="Path 840" d="M-139.684,323.67a75.628,75.628,0,0,1-3.141-11.286,6.708,6.708,0,0,0-3.355.372,5.453,5.453,0,0,0-.531.214c.479,1.757,1.064,3.513,1.7,5.377.958,2.662,2.022,5.218,3.141,7.559a3.389,3.389,0,0,0,.426-.159,5.823,5.823,0,0,0,2.076-1.224C-139.471,324.256-139.578,323.99-139.684,323.67Z" transform="translate(186.359 -290.504)" fill="#d9dadb"/>
      </g>
</svg>