<svg xmlns="http://www.w3.org/2000/svg" width="59.368" height="71.742" viewBox="0 0 59.368 71.742"><g transform="translate(118.249 -224.665)"><ellipse cx="29.684" cy="28.767" rx="29.684" ry="28.767" transform="translate(-118.249 224.665)" fill="#6aa376"/><rect width="4.915" height="11.445" rx="2.445" transform="translate(-99.997 262.721)" fill="#133342"/><rect width="4.915" height="11.445" rx="2.445" transform="translate(-82.608 262.721)" fill="#133342"/><ellipse cx="5.586" cy="5.413" rx="5.586" ry="5.413" transform="translate(-94.152 232.698)" fill="none" stroke="#133342" stroke-miterlimit="10" stroke-width="6"/><rect width="30.72" height="33.851" rx="15.283" transform="translate(-103.925 238.112)" fill="#e25343"/><rect width="30.688" height="18.376" rx="9.142" transform="translate(-103.91 238.112)" fill="#ec9a44"/><rect width="22.288" height="13.218" rx="6.576" transform="translate(-99.711 240.691)" fill="#f4b34b"/><rect width="4.546" height="13.863" rx="2.262" transform="translate(-99.494 249.267)" fill="#133342"/><rect width="4.546" height="13.863" rx="2.262" transform="translate(-82.105 249.234)" fill="#133342"/><ellipse cx="2.731" cy="2.646" rx="2.731" ry="2.646" transform="translate(-99.952 255.696)" fill="none" stroke="#fff" stroke-miterlimit="10" stroke-width="2"/><rect width="0.814" height="4.616" rx="0.405" transform="translate(-97.54 254.089)" fill="#fff"/><ellipse cx="2.731" cy="2.646" rx="2.731" ry="2.646" transform="translate(-82.562 255.696)" fill="none" stroke="#fff" stroke-miterlimit="10" stroke-width="2"/><rect width="0.814" height="4.616" rx="0.405" transform="translate(-80.15 254.089)" fill="#fff"/><path d="M-97.393,294.1q-.675.009-1.113.018t-.752.023q-.315.013-.561.027l-.539.032v-.574c.237.018.487.033.748.045s.549.023.862.032.66.016,1.04.018.811.005,1.291.005.921,0,1.305-.005.73-.009,1.04-.018.594-.02.853-.032.506-.027.743-.045v.574q-.383-.027-.753-.05t-.853-.032q-.483-.009-1.14-.013t-1.605-.005q-.256.32-.561.662t-.762.816l3.7-.064c-.122-.122-.254-.246-.4-.374s-.306-.265-.488-.411l.355-.337q.274.2.493.383t.415.369q.2.188.388.393c.128.137.264.287.41.452l-.492.382-.174-.241c-.054-.076-.109-.151-.164-.224q-1.25.047-2.134.087t-1.474.082c-.392.027-.7.055-.921.082a4.182,4.182,0,0,0-.479.078,1.274,1.274,0,0,0-.228-.584,1.437,1.437,0,0,0,.493-.169,3.575,3.575,0,0,0,.592-.451q.183-.165.315-.288c.088-.082.164-.156.228-.223a2.2,2.2,0,0,0,.169-.2A1.935,1.935,0,0,0-97.393,294.1Zm.739-5.118q-.547,0-.981.005l-.775.009q-.342,0-.616.018c-.183.009-.352.017-.511.023v-.511c.17.012.357.022.561.028s.432.01.684.013.536.007.849.009.667,0,1.063,0q2.125,0,3.165-.055v.511c-.164-.006-.339-.014-.524-.023s-.394-.015-.625-.018l-.78-.009q-.434,0-.981-.005v.676h1.195c.328,0,.616,0,.862-.01s.464-.01.652-.013.377-.011.566-.023v1.824h-.529v-1.4h-2.746v1.323c0,.2,0,.364,0,.506s.01.3.022.479h-.592q.018-.264.027-.483c.006-.146.009-.31.009-.493v-1.332h-2.691v1.433h-.52v-1.861l.488.018q.269.009.647.014l.886.009q.505,0,1.19.005Zm3.138,4.151c-.213-.03-.581-.055-1.1-.073s-1.152-.027-1.888-.027-1.34.009-1.847.027-.877.043-1.109.073v-.547c.116.018.274.033.475.045s.43.023.688.032.542.016.849.018.621.005.944.005q1.14,0,1.92-.028c.52-.018.878-.042,1.072-.072Zm-3.694-2.217c-.092-.006-.21-.01-.356-.013s-.3-.005-.465-.005-.338,0-.484.005-.261.007-.347.013V290.6c.086.006.2.011.347.014s.307,0,.484,0,.319,0,.465,0,.264-.008.356-.014Zm.018.976c-.091-.005-.21-.01-.356-.013s-.3-.005-.465-.005-.338,0-.484.005-.261.008-.346.013v-.319c.085.006.2.011.346.014s.308,0,.484,0,.319,0,.465,0,.265-.008.356-.014Zm3.284-.966c-.085-.007-.205-.011-.361-.014s-.348-.005-.579-.005-.4,0-.538.005-.252.007-.338.014v-.32c.086.006.21.011.374.014s.332,0,.5,0,.356,0,.538,0,.317-.008.4-.014Zm0,.984c-.085-.005-.218-.01-.4-.013s-.357-.005-.533-.005-.33,0-.479.005-.282.008-.4.013v-.319c.085.006.21.011.374.014s.331.005.5.005c.285,0,.49,0,.615-.005s.23-.008.315-.014Z"/><path d="M-85.953,292.867a5.416,5.416,0,0,0,.4.726,3,3,0,0,0,.507.579,4.7,4.7,0,0,0,.693.506,9.234,9.234,0,0,0,.953.5,1.935,1.935,0,0,0-.164.113.971.971,0,0,0-.114.105.749.749,0,0,0-.092.128c-.027.049-.059.11-.1.182a6.218,6.218,0,0,1-1.5-1.149,4.873,4.873,0,0,1-.944-1.469q-.092.047-.183.105c-.06.04-.124.081-.191.123a4.644,4.644,0,0,1,.141.776,4.8,4.8,0,0,1,0,.866,2.461,2.461,0,0,1-.114.6.982.982,0,0,1-.292.434,1.442,1.442,0,0,1-.547.278,4.168,4.168,0,0,1-.871.137,1.226,1.226,0,0,0-.083-.347,1.47,1.47,0,0,0-.237-.364,5.213,5.213,0,0,0,.771.041.981.981,0,0,0,.47-.123.626.626,0,0,0,.251-.329,2.612,2.612,0,0,0,.114-.565q.027-.283.027-.5c0-.143-.006-.278-.018-.406a8.185,8.185,0,0,1-.826.721,10.323,10.323,0,0,1-.907.62,9.557,9.557,0,0,1-.935.5,7.153,7.153,0,0,1-.917.356,1.519,1.519,0,0,0-.146-.3,1.138,1.138,0,0,0-.246-.274,4.943,4.943,0,0,0,1-.223,5.517,5.517,0,0,0,1-.452,6.772,6.772,0,0,0,.949-.661,6.758,6.758,0,0,0,.848-.844,5.938,5.938,0,0,0-.328-.575,7.157,7.157,0,0,1-1.2,1.008,11.165,11.165,0,0,1-1.555.862.64.64,0,0,0-.132-.314.793.793,0,0,0-.315-.224,8.525,8.525,0,0,0,.88-.3,5.462,5.462,0,0,0,.744-.364,5.089,5.089,0,0,0,.661-.466,6.929,6.929,0,0,0,.634-.6,2.41,2.41,0,0,0-.182-.233c-.067-.076-.134-.153-.2-.233a5.1,5.1,0,0,1-.474.333c-.17.107-.357.213-.561.32s-.431.216-.68.328-.529.233-.839.361a1.138,1.138,0,0,0-.132-.288,2.064,2.064,0,0,0-.269-.3q.564-.127,1.021-.269a5.686,5.686,0,0,0,.839-.333,4.662,4.662,0,0,0,.712-.438,5.251,5.251,0,0,0,.657-.593c-.4,0-.767,0-1.1.014s-.605.022-.83.041v-.575c.286.018.641.033,1.067.045s.894.019,1.4.019.982-.005,1.414-.014.785-.026,1.059-.05V291c-.269-.024-.612-.038-1.032-.041s-.875,0-1.368,0a5.477,5.477,0,0,1-.557.583,7.406,7.406,0,0,1,.607.7,5.755,5.755,0,0,1,.424.629c.28-.151.534-.293.762-.424s.432-.257.611-.378.339-.241.479-.356a2.948,2.948,0,0,0,.374-.365c.085.109.159.2.219.273a1.6,1.6,0,0,0,.21.21.121.121,0,0,1,.046.128c-.013.049-.055.064-.128.046a.254.254,0,0,0-.1,0,1.035,1.035,0,0,0-.228.091c-.113.055-.272.143-.479.265S-85.588,292.649-85.953,292.867Zm-1.688-3.7c-.048-.091-.094-.173-.137-.247s-.086-.146-.132-.218a2.413,2.413,0,0,0-.16-.224c-.06-.076-.131-.166-.209-.269l.492-.3c.085.127.158.24.219.337s.117.192.169.283.1.187.15.288.107.217.174.351q.729,0,1.241-.005l.88-.009c.246,0,.457-.008.634-.013s.343-.016.5-.028v1.715H-84.4v-1.2h-6v1.3h-.566v-1.806c.158.012.327.022.507.028s.395.01.648.013l.9.009Q-88.389,289.163-87.641,289.164Z"/><path d="M-80.243,289.939c.225,0,.411-.006.557-.018a4.373,4.373,0,0,0,.456-.064v.63a4.154,4.154,0,0,0-.452-.064c-.142-.013-.329-.018-.561-.018v.957l.374.324c.11.1.212.187.306.278s.186.181.274.27l.278.278-.456.346c-.073-.115-.14-.216-.2-.3s-.122-.162-.182-.233-.122-.138-.183-.205-.131-.139-.21-.218v2.745c0,.183,0,.347,0,.493s.008.284.014.415.014.261.022.392.02.27.033.416h-.657c.012-.146.022-.285.032-.416s.016-.263.022-.4.011-.274.014-.42.005-.307.005-.484v-2.819q-.109.32-.228.6t-.247.553c-.085.179-.176.359-.273.538s-.2.363-.32.552a.989.989,0,0,0-.292-.224,1.229,1.229,0,0,0-.31-.1,6.409,6.409,0,0,0,.516-.679,8.536,8.536,0,0,0,.469-.8,9.087,9.087,0,0,0,.393-.871q.172-.447.292-.876V290.4c-.213,0-.391,0-.534,0s-.269.008-.379.014-.208.013-.3.023a2.745,2.745,0,0,0-.278.041v-.63c.1.018.188.032.273.041s.183.017.292.023.237.01.383.014.326,0,.539,0q-.009-.758-.032-1.2t-.06-.708a2.224,2.224,0,0,0,.352.064,3.043,3.043,0,0,0,.333.019c.091,0,.141.017.15.05s-.023.093-.1.178a.569.569,0,0,0-.1.246,1.776,1.776,0,0,0-.033.365Zm3.595,4.853a4,4,0,0,1-.475.42,5.958,5.958,0,0,1-.592.392q-.33.192-.73.384t-.9.392a.787.787,0,0,0-.173-.315.966.966,0,0,0-.319-.205,8.7,8.7,0,0,0,1.606-.6,4.64,4.64,0,0,0,1.194-.862,6.245,6.245,0,0,1-.707-.949,6.763,6.763,0,0,1-.533-1.067l.483-.219a7.045,7.045,0,0,0,.47,1,4.66,4.66,0,0,0,.625.853,4.3,4.3,0,0,0,.292-.392,2.691,2.691,0,0,0,.15-.283,3.437,3.437,0,0,0,.16-.4c.049-.145.091-.3.128-.46a3.565,3.565,0,0,0,.073-.461,2.518,2.518,0,0,0,.356.187,2.236,2.236,0,0,0,.282.1c.085.024.13.059.133.105s-.057.1-.178.168c-.012.013-.026.028-.041.046a.765.765,0,0,0-.073.119c-.034.061-.08.152-.137.273s-.138.29-.242.5a4.959,4.959,0,0,1-.511.876,6.717,6.717,0,0,0,1.182.835,5.231,5.231,0,0,0,1.209.488,1.233,1.233,0,0,0-.279.274.934.934,0,0,0-.141.31c-.238-.1-.459-.21-.666-.32a6.662,6.662,0,0,1-.584-.346q-.273-.183-.534-.388T-76.648,294.792Zm-.675-4.068c.067.024.094.06.082.109s-.067.085-.164.11a.2.2,0,0,0-.064.027.424.424,0,0,0-.078.078c-.033.039-.08.1-.141.173s-.14.181-.237.314l-.169.22c-.052.067-.108.135-.169.2s-.129.144-.205.223-.166.171-.269.274a1.009,1.009,0,0,0-.2-.233.942.942,0,0,0-.287-.141q.255-.2.438-.351a2.528,2.528,0,0,0,.333-.329,3.485,3.485,0,0,0,.3-.415q.146-.237.337-.611a2.2,2.2,0,0,0,.242.21A.969.969,0,0,0-77.323,290.724Zm3.22-.566-.475-.032c-.152-.009-.32-.015-.506-.018l-.647-.009c-.247,0-.543-.005-.89-.005q-.438,0-.766.005l-.6.009c-.179,0-.345.009-.5.018l-.474.032v-.575l.474.033c.152.008.318.015.5.018l.6.009q.329,0,.766,0,.512,0,.88,0l.653-.009c.188,0,.358-.01.51-.018l.475-.033Zm-2.554-.611a3.767,3.767,0,0,0-.479-.63,4.784,4.784,0,0,0-.653-.583l.365-.365a7.986,7.986,0,0,1,.694.629q.311.32.538.6Zm2.143,2.864a9.038,9.038,0,0,0-.688-.807,9.627,9.627,0,0,0-.872-.8l.356-.374q.483.429.876.807c.261.252.52.513.776.78Z"/></g></svg>