<svg xmlns="http://www.w3.org/2000/svg" width="58.174" height="72.562" viewBox="0 0 58.174 72.562"><g transform="translate(214.507 -177.939)"><circle cx="29.087" cy="29.087" r="29.087" transform="translate(-214.507 177.939)" fill="#efd6c2"/><rect width="28.686" height="36.292" rx="6.292" transform="translate(-201.947 188.88)" fill="#e35443"/><rect width="6.085" height="2.39" rx="1.189" transform="translate(-204.012 190.988)" fill="#10303d"/><rect width="6.085" height="2.39" rx="1.189" transform="translate(-204.012 195.275)" fill="#10303d"/><rect width="6.085" height="2.39" rx="1.189" transform="translate(-204.012 199.563)" fill="#10303d"/><rect width="6.085" height="2.39" rx="1.189" transform="translate(-204.012 203.85)" fill="#10303d"/><rect width="6.085" height="2.39" rx="1.189" transform="translate(-204.012 208.137)" fill="#10303d"/><rect width="6.085" height="2.39" rx="1.189" transform="translate(-204.012 212.425)" fill="#10303d"/><rect width="6.085" height="2.39" rx="1.189" transform="translate(-204.012 216.712)" fill="#10303d"/><rect width="6.085" height="2.39" rx="1.189" transform="translate(-204.012 220.999)" fill="#10303d"/><rect width="15.647" height="6.184" transform="translate(-194.808 195.878)" fill="#fff"/><path d="M-169.375,193.286l-.008.024a1.1,1.1,0,0,0,1.052,1.422h.015a1.1,1.1,0,0,0,1.053-1.422l-.008-.024A1.1,1.1,0,0,0-169.375,193.286Z" fill="#0b3039"/><rect width="2.988" height="29.397" transform="translate(-169.817 194.08)" fill="#ef9944"/><rect width="1.494" height="29.397" transform="translate(-168.323 194.08)" fill="#e78927"/><path d="M-166.949,194.341l-.743-2.432a3.134,3.134,0,0,1-1.664,1.315l-.342,1.117a.3.3,0,0,0,.29.391h2.17A.3.3,0,0,0-166.949,194.341Z" fill="#e78927"/><path d="M-200.264,245.867c-.256.122-.541.249-.858.383s-.687.277-1.112.429a1.279,1.279,0,0,0-.142-.3.785.785,0,0,0-.232-.215,9.363,9.363,0,0,0,1.236-.351,8.861,8.861,0,0,0,1.172-.515,6.6,6.6,0,0,0,.981-.634,2.787,2.787,0,0,0,.661-.717q.137.109.219.165a1.3,1.3,0,0,0,.182.1c.086.036.134.074.146.114s-.03.068-.127.087a.261.261,0,0,0-.069.027c-.021.012-.044.025-.068.037a6.958,6.958,0,0,0,.821.524,9.291,9.291,0,0,0,.967.461,10.129,10.129,0,0,0,1.053.365,10.227,10.227,0,0,0,1.081.246,1.842,1.842,0,0,0-.164.246,3.033,3.033,0,0,0-.137.3q-.574-.154-1.108-.346t-1.017-.42v.429c-.122-.012-.234-.022-.338-.027s-.217-.011-.342-.014-.269-.005-.433-.005h-1.218c-.167,0-.316,0-.447.005s-.251.007-.36.014-.225.015-.347.027Zm-.492-2.755q.655,0,1.067-.009t.657-.023c.164-.009.285-.02.365-.032s.143-.024.191-.036v.593l-.187-.023c-.07-.009-.167-.015-.292-.018l-.483-.01c-.2,0-.449,0-.753,0q.1.127.183.237c.054.073.108.146.159.219s.1.148.151.224.1.159.164.251l-.484.237a5.7,5.7,0,0,0-.273-.575c-.1-.176-.216-.374-.356-.593h-.392q-.137.21-.251.374c-.076.109-.151.213-.224.31s-.15.194-.232.288-.175.2-.278.3a1.114,1.114,0,0,0-.256-.182,1.511,1.511,0,0,0-.319-.11,4.637,4.637,0,0,0,.452-.36,3.359,3.359,0,0,0,.4-.434,5.655,5.655,0,0,0,.4-.592q.206-.347.452-.858a1.637,1.637,0,0,0,.547.219.12.12,0,0,1,.078.109c.008.061-.02.1-.087.1a.293.293,0,0,0-.169.1A1.888,1.888,0,0,0-200.756,243.112Zm.428,6.012a3.483,3.483,0,0,1-.656.721,7.68,7.68,0,0,1-.922.656,1.3,1.3,0,0,0-.21-.264,1.274,1.274,0,0,0-.282-.183,4.179,4.179,0,0,0,1.29-.73,2.3,2.3,0,0,0,.652-.93c-.1,0-.2,0-.3.005l-.287.008-.242.01c-.07,0-.123.008-.16.013.006-.127.012-.259.019-.4s.009-.292.009-.469,0-.336-.009-.479-.013-.275-.019-.4a1.267,1.267,0,0,0,.242.023c.113,0,.234.008.365.014s.261.009.392.009h.657c.125,0,.246,0,.365-.009s.23-.011.333-.014a1.185,1.185,0,0,0,.228-.023c-.006.122-.011.254-.014.4s0,.3,0,.479,0,.333,0,.469.008.267.014.389a1.946,1.946,0,0,0-.2-.015l-.292-.008c-.107,0-.216-.005-.328-.005h-.315c-.018.061-.037.12-.055.178a1.136,1.136,0,0,1-.073.178l.766.488a7.348,7.348,0,0,1,.63.442l-.374.374c-.183-.158-.379-.317-.589-.479S-200.109,249.264-200.328,249.124Zm.949-1.989h-1.569v.857h1.569Zm.766-2.4a6.516,6.516,0,0,1-.666.552,6.577,6.577,0,0,1-.821.5c.1.006.2.011.3.014l.333.009c.121,0,.261,0,.419,0h1.1c.152,0,.286,0,.4,0l.315-.009c.094,0,.19-.008.287-.014A8.73,8.73,0,0,1-198.613,244.736Zm1.66,4.424a2.451,2.451,0,0,1-.241.338,3.717,3.717,0,0,1-.306.315,4.752,4.752,0,0,1-.4.324l-.5.364a.7.7,0,0,0-.511-.337c.262-.146.488-.283.68-.411a3.543,3.543,0,0,0,.5-.392,2.2,2.2,0,0,0,.356-.438,2.718,2.718,0,0,0,.255-.557c-.091,0-.188,0-.292.005l-.3.009-.255.009c-.077,0-.133.008-.169.014.006-.127.012-.26.018-.4s.009-.293.009-.47q0-.5-.027-.875a1.158,1.158,0,0,0,.223.022l.329.014q.177.009.36.009h.657c.134,0,.268,0,.4-.009l.369-.014a1.3,1.3,0,0,0,.243-.022,3.742,3.742,0,0,0-.019.4v.479c0,.177,0,.333,0,.47s.007.266.014.388c-.037-.006-.1-.01-.179-.014l-.273-.009c-.1,0-.207-.005-.319-.005h-.315a4.315,4.315,0,0,1-.146.448l.47.3c.167.107.332.214.5.324s.322.217.474.324.286.205.4.3l-.437.383c-.231-.218-.49-.441-.775-.665S-196.7,249.343-196.953,249.16Zm-.31-5.619a2.8,2.8,0,0,1-.209.315c-.086.112-.214.26-.383.442a1.736,1.736,0,0,0-.2-.141.988.988,0,0,0-.278-.1,4.683,4.683,0,0,0,.338-.338,3.838,3.838,0,0,0,.3-.378,4.581,4.581,0,0,0,.274-.456q.132-.252.278-.561c.1.054.19.1.26.123s.151.056.242.086a.11.11,0,0,1,.077.1c0,.049-.026.088-.086.118a.454.454,0,0,0-.156.11,2.136,2.136,0,0,0-.209.264c.432,0,.786-.005,1.062-.013s.5-.02.671-.033.3-.023.392-.036a1.664,1.664,0,0,0,.237-.046v.594c-.055-.007-.123-.013-.2-.019s-.191-.01-.328-.014l-.506-.008c-.2,0-.448-.005-.74-.005.195.225.356.416.484.575a4.943,4.943,0,0,1,.346.483l-.538.283a5.92,5.92,0,0,0-.333-.657c-.118-.2-.266-.429-.442-.684Zm1.2,3.567h-1.57v.857h1.57Z"/><path d="M-191.041,247.646c-.183,0-.366,0-.552.005s-.364.008-.533.018-.326.02-.466.032-.255.024-.346.036v-.657c.091.013.206.025.346.037s.295.023.466.032.348.015.533.018.369,0,.552,0c0-.189,0-.35-.009-.484s-.013-.249-.018-.346-.014-.18-.023-.247-.017-.127-.023-.182a2.437,2.437,0,0,0,.361.059c.112.009.229.014.351.014.085,0,.13.017.136.05s-.027.071-.1.114a.227.227,0,0,0-.118.219v.8c.364,0,.714-.008,1.048-.023a7.056,7.056,0,0,0,.785-.069v.657a7.353,7.353,0,0,0-.785-.068c-.334-.015-.684-.023-1.048-.023v1.469q.546-.083,1.076-.178t1-.215a2,2,0,0,0-.068.306,1.367,1.367,0,0,0,0,.333q-1.449.128-2.6.333t-1.988.443a1.634,1.634,0,0,0-.237-.739q.492-.018,1.072-.074t1.19-.136Zm-.611-1.925q-.384.029-.652.073a3.016,3.016,0,0,0-.461.11,1.745,1.745,0,0,0-.1-.374,1.709,1.709,0,0,0-.16-.347.556.556,0,0,0,.174-.027.78.78,0,0,0,.173-.087,1.331,1.331,0,0,0,.2-.16c.07-.066.154-.155.251-.264q.3-.347.534-.657a5.27,5.27,0,0,0,.415-.648q-.657,0-1.122.019c-.31.012-.557.03-.739.054V242.8c.255.024.582.043.98.055s.89.018,1.474.018,1.076-.006,1.441-.018.675-.031.931-.055v.611q-.384-.036-.913-.054t-1.377-.019q-.364.521-.734.981t-.789.935l2.709-.128q-.192-.219-.406-.438t-.47-.438l.438-.355q.465.456.844.889t.725.917l-.484.365a3.114,3.114,0,0,0-.159-.283c-.058-.091-.12-.179-.187-.265Zm4.488-2.052a.268.268,0,0,0-.1.246v2.709c0,.092,0,.2,0,.32s.008.248.014.378l.018.393c.006.13.015.25.028.36h-.648c.006-.11.014-.23.023-.36s.016-.264.022-.4.011-.261.014-.379.005-.223.005-.315v-1.988c0-.231-.007-.461-.019-.689a3.992,3.992,0,0,0-.054-.525,2.5,2.5,0,0,0,.342.064,1.76,1.76,0,0,0,.306.009c.079-.012.123,0,.132.046S-187.1,243.626-187.164,243.669Zm1.651-1.141a.255.255,0,0,0-.118.247v6.778a1.207,1.207,0,0,1-.051.374.5.5,0,0,1-.209.26,1.511,1.511,0,0,1-.461.178,6.629,6.629,0,0,1-.812.127,1.177,1.177,0,0,0-.064-.378,1.427,1.427,0,0,0-.237-.406q.411.063.661.077a1.173,1.173,0,0,0,.384-.027.259.259,0,0,0,.173-.137.654.654,0,0,0,.041-.251v-5.61c0-.322-.008-.621-.023-.894s-.032-.475-.05-.6a2.039,2.039,0,0,0,.693.063c.085,0,.135.018.151.069S-185.446,242.492-185.513,242.528Z"/><path d="M-183.232,248.458a8.008,8.008,0,0,1-.3.908q-.179.452-.388.862l-.52-.21c.073-.116.138-.228.2-.338a3.578,3.578,0,0,0,.164-.356c.052-.127.1-.271.155-.433s.111-.357.178-.588Zm-.119-3.1a3.3,3.3,0,0,0-.438.069,2.915,2.915,0,0,0-.438.132,1.448,1.448,0,0,0-.054-.269.917.917,0,0,0-.137-.251,4.343,4.343,0,0,0,.972-1.067,11.4,11.4,0,0,0,.9-1.706,2.287,2.287,0,0,0,.315.187,1.506,1.506,0,0,0,.26.1.124.124,0,0,1,.105.115.119.119,0,0,1-.087.123.546.546,0,0,0-.187.128,1.6,1.6,0,0,0-.178.237c-.109.188-.27.432-.483.729s-.475.639-.785,1.022l1.46-.054q.264-.384.4-.625c.087-.161.162-.312.223-.452.1.067.187.131.269.192a1.618,1.618,0,0,0,.233.146q.118.063.114.141c0,.052-.038.087-.1.1a.365.365,0,0,0-.16.1,4.072,4.072,0,0,0-.269.324l-.351.442c-.119.149-.249.312-.392.488s-.3.374-.484.593-.388.471-.625.757q.493-.036.958-.1t.785-.132a5.557,5.557,0,0,0-.4-.675l.42-.246a6.667,6.667,0,0,1,.442.748q.205.4.379.8l-.465.2c-.031-.067-.06-.136-.087-.206s-.056-.138-.086-.205l-1.789.292c-.194.03-.361.061-.5.091a1.789,1.789,0,0,0-.364.118,1.957,1.957,0,0,0-.092-.319,1.55,1.55,0,0,0-.191-.355,1.083,1.083,0,0,0,.306-.115,1.807,1.807,0,0,0,.369-.287,6.751,6.751,0,0,0,.492-.538q.283-.337.676-.876Zm.894,4.561c-.066-.352-.129-.643-.187-.871a6.953,6.953,0,0,0-.214-.688l.438-.146a7.2,7.2,0,0,1,.264.72c.079.256.155.538.228.849Zm1.277-.41a6.231,6.231,0,0,0-.328-.725,4.555,4.555,0,0,0-.429-.662l.365-.255c.183.25.336.478.461.684s.248.438.369.693Zm3.9-6h-2.007c-.1,0-.205,0-.324.009s-.237.016-.355.028-.232.026-.338.041a2.2,2.2,0,0,0-.26.05v-.721a4,4,0,0,0,.766.092q.529.027,1.268.027t1.149-.027a3.852,3.852,0,0,0,.667-.092,3.509,3.509,0,0,0-.037.374c-.006.128-.009.277-.009.448v1.633c0,.261,0,.506.014.734s.019.47.032.725h-.566v-.639h-2.472v2.938a.634.634,0,0,0,.059.3.422.422,0,0,0,.228.183,1.686,1.686,0,0,0,.488.091c.213.015.492.023.839.023q.393,0,.657-.014a.867.867,0,0,0,.429-.118.632.632,0,0,0,.246-.338,3.1,3.1,0,0,0,.128-.671,1.362,1.362,0,0,0,.324.247,1.288,1.288,0,0,0,.314.1,3.465,3.465,0,0,1-.291.734,1.048,1.048,0,0,1-.393.4,1.489,1.489,0,0,1-.6.164c-.241.021-.546.032-.917.032q-.684,0-1.1-.032a1.784,1.784,0,0,1-.625-.137.511.511,0,0,1-.278-.3,1.722,1.722,0,0,1-.063-.52v-2.828c0-.207,0-.364-.01-.47a2.762,2.762,0,0,0-.036-.315c.067.013.133.021.2.028l.238.018c.091.006.2.009.328.009h2.3Z"/><path d="M-173.371,243.359c-.127.2-.273.415-.438.643s-.331.457-.5.688a2.911,2.911,0,0,0,.479.055c.167.006.324.009.47.009.213,0,.425-.007.638-.023a2.785,2.785,0,0,0,.493-.068v.566a1.714,1.714,0,0,0-.365-.051c-.158-.009-.335-.016-.529-.022V246.3q.355-.009.679-.027a3.163,3.163,0,0,0,.479-.055v.557a3.631,3.631,0,0,0-.479-.041q-.324-.015-.679-.023V248.9c.219-.067.422-.135.611-.206a4.022,4.022,0,0,0,.474-.205,1.408,1.408,0,0,0-.023.274,1.125,1.125,0,0,0,.051.274l-1.022.273c-.292.079-.551.153-.776.219s-.425.134-.6.2-.34.137-.492.21a1.888,1.888,0,0,0-.077-.319,1.916,1.916,0,0,0-.151-.32,4.552,4.552,0,0,0,.693-.082c.262-.048.529-.106.8-.173v-2.335c-.116,0-.236,0-.361,0s-.244.008-.36.014-.22.013-.314.023-.169.016-.224.023v-.557a1.973,1.973,0,0,0,.228.032c.1.009.2.017.315.023l.355.018c.125.006.245.009.361.009v-1.149c-.14.006-.282.015-.424.027s-.275.027-.4.046v-.347c-.067.1-.134.19-.2.278l-.2.26a1.283,1.283,0,0,0-.22-.219,1.391,1.391,0,0,0-.282-.146,6.185,6.185,0,0,0,.6-.593,7.575,7.575,0,0,0,.556-.7,6.566,6.566,0,0,0,.452-.744,3.538,3.538,0,0,0,.287-.725,1.355,1.355,0,0,0,.255.16,1.471,1.471,0,0,0,.292.1c.085.018.127.056.123.113a.172.172,0,0,1-.113.142.881.881,0,0,0-.256.237q.456.311.785.538c.219.152.416.295.593.429l-.384.429q-.237-.255-.547-.534C-172.92,243.716-173.14,243.535-173.371,243.359Zm-1.085,5.427a4.549,4.549,0,0,0-.21-.607,4.051,4.051,0,0,0-.319-.606l.42-.255c.066.127.126.24.177.337s.1.191.146.283.09.182.133.274.087.191.136.3Zm2.518-1.5a5.877,5.877,0,0,0-.251.561q-.132.333-.233.607l-.411-.146a1.526,1.526,0,0,0,.11-.228c.036-.091.073-.192.11-.3s.071-.225.105-.347.062-.243.086-.365Zm2.134-1.35c-.273,0-.532,0-.775.009l-.662.018c-.2.007-.363.014-.5.023s-.228.017-.283.023v-.538a3.59,3.59,0,0,0,.479.054c.2.012.391.019.58.019H-169l.247-.657h-2.053a2.363,2.363,0,0,0-.424.032.934.934,0,0,0-.306.1c-.03-.1-.058-.176-.082-.237s-.064-.152-.119-.274q.237-.063.548-.621a10.2,10.2,0,0,0,.684-1.7,3.455,3.455,0,0,0,.328.182,1.1,1.1,0,0,0,.256.082c.073.013.108.043.1.092s-.048.088-.133.118a.556.556,0,0,0-.173.137,1.384,1.384,0,0,0-.2.337h1.1c.292,0,.579-.007.862-.023s.54-.037.771-.068l-.894,2.491q.565,0,.9-.023c.225-.015.389-.032.493-.05V246a4.6,4.6,0,0,0-.671-.055q-.515-.018-1.528-.018v1.2q.192.319.411.63a4.941,4.941,0,0,0,.7-.735,3.742,3.742,0,0,0,.479-.816,2.15,2.15,0,0,0,.233.205c.07.052.151.108.242.169.061.036.088.076.082.118s-.052.085-.137.128a1.931,1.931,0,0,0-.256.169,2.035,2.035,0,0,0-.246.223c-.14.158-.279.312-.419.461s-.28.291-.42.424a7.043,7.043,0,0,0,.844.908,3.59,3.59,0,0,0,.917.616,1.133,1.133,0,0,0-.238.255,1.692,1.692,0,0,0-.146.292A7.069,7.069,0,0,1-168.4,249.1a7.834,7.834,0,0,1-.89-1.245v1.715a1.346,1.346,0,0,1-.055.415.532.532,0,0,1-.2.274,1.052,1.052,0,0,1-.4.155,4.023,4.023,0,0,1-.656.059.883.883,0,0,0-.019-.31,1.243,1.243,0,0,0-.146-.329,5.162,5.162,0,0,0,.539.064.674.674,0,0,0,.287-.032.193.193,0,0,0,.118-.146,1.425,1.425,0,0,0,.023-.287v-1.323q-.246.2-.551.461c-.205.173-.4.345-.6.515s-.38.33-.547.479-.3.266-.4.351a1.6,1.6,0,0,0-.392-.538,4.661,4.661,0,0,0,.57-.314q.324-.206.661-.452t.666-.516q.329-.269.593-.506Zm-.83,1.77a5.51,5.51,0,0,0-.57-.5q-.288-.219-.652-.447l.292-.4q.355.237.675.46c.213.149.416.3.611.461Zm2.363-4.16h-2.244c-.086.188-.161.36-.228.515s-.134.3-.2.434h2.326Z"/></g></svg>