<svg xmlns="http://www.w3.org/2000/svg" width="58.083" height="72.396" viewBox="0 0 58.083 72.396"><g transform="translate(127.335 -298.968)"><circle cx="29.042" cy="29.042" r="29.042" transform="translate(-127.335 298.968)" fill="#1e8685"/><circle cx="2.441" cy="2.441" r="2.441" transform="translate(-100.735 309.133)" fill="#ec8b2d"/><path d="M-104.715,346.887h-4.3l2.4-8.11h4.3Z" fill="#ec8b2d"/><path d="M-91.872,346.887h4.3l-2.4-8.11h-4.3Z" fill="#ec8b2d"/><rect width="35.476" height="28.37" rx="11.025" transform="translate(-116.031 311.384)" fill="#ee9a40"/><rect width="28.489" height="22.783" rx="11.025" transform="translate(-112.538 314.177)" fill="#113140"/><path d="M-106.933,327.792c.845-.082.9-.181.9-.79v-3.477c0-.39-.036-.454-.463-.5l-.391-.046v-.136a3.7,3.7,0,0,0,1.3-.445V327c0,.609.063.708.908.79v.127h-2.252Z" fill="#fff"/><path d="M-103.267,325.332h2.024v-2.016h.427v2.016H-98.8v.363h-2.016v2.224h-.427V325.7h-2.024Z" fill="#fff"/><path d="M-97.251,327.792c.845-.082.9-.181.9-.79v-3.477c0-.39-.036-.454-.462-.5l-.391-.046v-.136a3.682,3.682,0,0,0,1.3-.445V327c0,.609.064.708.908.79v.127h-2.252Z" fill="#fff"/><path d="M-93.584,324.478h4.457v.354h-4.457Zm0,1.716h4.457v.363h-4.457Z" fill="#fff"/><path d="M-106.933,327.792c.845-.082.9-.181.9-.79v-3.477c0-.39-.036-.454-.463-.5l-.391-.046v-.136a3.7,3.7,0,0,0,1.3-.445V327c0,.609.063.708.908.79v.127h-2.252Z" fill="#fff"/><path d="M-103.267,325.332h2.024v-2.016h.427v2.016H-98.8v.363h-2.016v2.224h-.427V325.7h-2.024Z" fill="#fff"/><path d="M-97.251,327.792c.845-.082.9-.181.9-.79v-3.477c0-.39-.036-.454-.462-.5l-.391-.046v-.136a3.682,3.682,0,0,0,1.3-.445V327c0,.609.064.708.908.79v.127h-2.252Z" fill="#fff"/><path d="M-93.584,324.478h4.457v.354h-4.457Zm0,1.716h4.457v.363h-4.457Z" fill="#fff"/><path d="M-114.323,364.322q-.273.054-.584.109l-.739.128a.953.953,0,0,0-.114-.316,1.352,1.352,0,0,0-.232-.314,6.991,6.991,0,0,0,1.5-.077,9.633,9.633,0,0,0,1.715-.443q.1.146.168.237a1.972,1.972,0,0,0,.169.192c.067.067.09.118.069.154s-.09.049-.205.038a1.877,1.877,0,0,0-.379.031c-.186.027-.461.075-.825.141v1.469h1.97c-.012-.426-.025-.783-.037-1.071s-.024-.531-.036-.726-.024-.349-.037-.465-.024-.215-.036-.3a1.48,1.48,0,0,0,.3.064,1.676,1.676,0,0,0,.347,0c.1-.013.161,0,.173.041s-.021.1-.1.169a.254.254,0,0,0-.06.146,2.919,2.919,0,0,0-.032.379c-.006.172-.006.4,0,.688s.019.645.037,1.076q1.013,0,1.683-.022c.447-.016.826-.038,1.136-.069v.575c-.183-.012-.364-.023-.543-.032s-.376-.015-.589-.018l-.72-.009q-.4,0-.949-.005c.018.255.037.479.055.671s.042.369.073.533.067.325.109.484.094.332.155.52c.043.14.092.276.146.41a4.546,4.546,0,0,0,.365-.529c.115-.194.222-.4.32-.6a5.189,5.189,0,0,0,.246-.625,4.337,4.337,0,0,0,.146-.588,1.828,1.828,0,0,0,.292.109,2.075,2.075,0,0,0,.292.055c.06.012.1.031.105.054s-.011.052-.06.082a.305.305,0,0,0-.059.06.924.924,0,0,0-.087.155l-.15.319c-.064.137-.148.325-.251.561a4.587,4.587,0,0,1-.4.726,8.33,8.33,0,0,1-.529.7,3.4,3.4,0,0,0,.466.683,3.627,3.627,0,0,0,.456.439,1.18,1.18,0,0,0,.255.159.159.159,0,0,0,.178-.027.556.556,0,0,0,.132-.269c.037-.134.076-.326.119-.575a.766.766,0,0,0,.255.27.911.911,0,0,0,.329.113,4.025,4.025,0,0,1-.26.725,1,1,0,0,1-.283.366.422.422,0,0,1-.333.068,1.386,1.386,0,0,1-.419-.174,2.784,2.784,0,0,1-.7-.57,4.661,4.661,0,0,1-.57-.8,9.566,9.566,0,0,1-.939.857,12.015,12.015,0,0,1-1.013.73,1.109,1.109,0,0,0-.2-.31.657.657,0,0,0-.3-.191,6.759,6.759,0,0,0,1.24-.68,6.354,6.354,0,0,0,.976-.862,5.064,5.064,0,0,1-.319-.857,8.321,8.321,0,0,1-.219-.926,10.945,10.945,0,0,1-.137-1.264h-2v1.524q.41-.174.761-.342c.234-.114.439-.221.616-.324a2.262,2.262,0,0,0,.127.556q-.3.109-.684.265c-.255.1-.529.219-.82.346v2.253a.752.752,0,0,1-.051.288.461.461,0,0,1-.228.218,1.737,1.737,0,0,1-.515.156,7.5,7.5,0,0,1-.912.086.734.734,0,0,0-.028-.355,1.138,1.138,0,0,0-.21-.329,4.613,4.613,0,0,0,.694.078,1.25,1.25,0,0,0,.428-.051.374.374,0,0,0,.215-.159.506.506,0,0,0,.059-.251v-1.7c-.341.139-.671.284-.99.432s-.606.285-.862.407a2.4,2.4,0,0,0-.132-.352,1.862,1.862,0,0,0-.169-.278q.493-.127,1.049-.32t1.1-.41v-1.742q-.374,0-.666.005l-.533.009c-.162,0-.312.009-.452.018s-.283.02-.429.032v-.575c.261.018.553.034.876.046s.724.024,1.2.036Zm4.817.857a2.759,2.759,0,0,0-.265-.356c-.109-.127-.23-.253-.36-.378s-.263-.241-.4-.347a3.134,3.134,0,0,0-.374-.26l.365-.374c.1.067.213.156.347.269s.269.231.4.355.268.25.393.374.226.234.306.324Z"/><path d="M-105.939,364.786a7.5,7.5,0,0,0,.241-.958,6.458,6.458,0,0,0,.1-.83c.14.049.26.085.361.11s.22.051.36.082.137.1.027.21a1.531,1.531,0,0,0-.241.406,7.71,7.71,0,0,0-.342.98c.316,0,.623-.005.921-.018s.553-.03.766-.055a3.085,3.085,0,0,0-.05.406c-.009.15-.014.291-.014.424v4.708c0,.1,0,.2.01.306s.013.2.023.314.019.231.031.365h-.62V370.4h-1.934v.912h-.639c.013-.134.023-.255.032-.364s.017-.215.023-.316.011-.2.014-.3,0-.219,0-.347v-4.434c0-.139-.006-.284-.018-.432s-.027-.282-.045-.4c.152.025.305.041.46.051S-106.134,364.781-105.939,364.786Zm1.578,2.6v-2.125h-1.934v2.125Zm-1.934.456v2.117h1.934v-2.117Zm4.068-2.709c-.048.109-.105.235-.168.379s-.132.29-.206.442-.151.3-.237.452-.167.287-.246.415a2.292,2.292,0,0,0-.269-.156,1.886,1.886,0,0,0-.3-.109q.246-.355.433-.675a5.591,5.591,0,0,0,.342-.7,8.7,8.7,0,0,0,.3-.885c.1-.335.193-.742.3-1.222a2.123,2.123,0,0,0,.666.21c.085.011.129.038.132.077s-.038.092-.123.16a.249.249,0,0,0-.064.072,1.155,1.155,0,0,0-.087.179c-.033.082-.074.192-.123.333s-.109.318-.182.538h1.45q.256,0,.552-.024c.2-.014.351-.031.461-.049-.018.139-.031.286-.037.437s-.015.308-.027.466l-.091,4.652a1.2,1.2,0,0,1-.078.438.726.726,0,0,1-.292.343,1.79,1.79,0,0,1-.606.222,5.2,5.2,0,0,1-1.031.082c-.012-.079-.025-.147-.037-.205a1.146,1.146,0,0,0-.045-.159.833.833,0,0,0-.074-.15c-.03-.052-.069-.118-.118-.2a8.891,8.891,0,0,0,.908.009,1.026,1.026,0,0,0,.506-.132.552.552,0,0,0,.228-.365,3.34,3.34,0,0,0,.055-.688l.046-4.188Zm.621,3.786c-.073-.171-.151-.349-.233-.538s-.168-.373-.26-.553-.182-.35-.274-.514a4.839,4.839,0,0,0-.264-.429l.5-.338q.119.2.255.451c.091.168.183.343.274.526s.181.367.269.555.169.369.242.538Z"/><path d="M-95.093,364.823q-.246-.036-.675-.055t-.894-.018q-.465,0-.907.018t-.707.055v-.556c.176.017.412.033.707.045s.6.018.907.018.608-.006.894-.018.511-.028.675-.045Zm-.173,1.186c-.14-.013-.327-.022-.561-.032s-.473-.014-.716-.014c-.128,0-.26,0-.4,0l-.4.009c-.127,0-.247.008-.36.014s-.205.012-.278.018v-.5c.152.013.363.023.634.032s.536.014.8.014q.355,0,.7-.01c.232-.006.423-.017.575-.036Zm-.073,1.259c-.146-.012-.334-.023-.565-.032s-.469-.014-.712-.014-.5.005-.762.014-.457.02-.6.032v-.511q.228.018.6.032t.762.014q.355,0,.7-.014t.575-.032Zm2.326-.5c-.261,0-.482,0-.661.01s-.335.011-.465.017-.244.014-.338.024-.184.019-.269.031c.018-.121.034-.246.046-.374s.018-.237.018-.328V364.2c0-.09,0-.2-.014-.333a2.762,2.762,0,0,0-.05-.369c.091.013.188.025.292.036s.229.022.379.028.331.01.547.013.482.005.8.005.6,0,.816-.005.4-.006.543-.013.269-.014.37-.023a2.876,2.876,0,0,0,.3-.041,2.459,2.459,0,0,0-.036.315c-.006.113-.01.242-.01.387v1.944c0,.145,0,.275.01.387a2.438,2.438,0,0,0,.036.315c-.091-.012-.182-.023-.274-.031s-.2-.018-.333-.024-.29-.011-.478-.017-.42-.01-.693-.01v.922q.465,0,.816,0c.234,0,.439-.009.616-.019s.336-.019.479-.031.278-.024.4-.037v.575c-.255-.03-.52-.049-.793-.055s-.6-.009-.985-.009c.164.267.316.505.456.712a6,6,0,0,0,.428.565,4.686,4.686,0,0,0,.47.475,4.784,4.784,0,0,0,.57.42,1.833,1.833,0,0,0-.264.205,1.527,1.527,0,0,0-.219.278,6.512,6.512,0,0,1-.6-.6,6.4,6.4,0,0,1-.474-.62,6.928,6.928,0,0,1-.4-.671q-.182-.35-.356-.761h-.154v1.852c0,.11,0,.227,0,.351s.006.248.009.37.008.233.014.337a2.273,2.273,0,0,0,.027.256h-.648c.013-.074.023-.16.033-.26s.015-.21.018-.329,0-.24.009-.364,0-.246,0-.361v-1.852H-93.1a7.274,7.274,0,0,1-.333.73,5.957,5.957,0,0,1-.406.661,6.618,6.618,0,0,1-.524.648q-.3.324-.689.688a1.071,1.071,0,0,0-.178-.214,1.563,1.563,0,0,0-.251-.177c.006.079.011.151.014.218a.815.815,0,0,0,.023.173h-.539V370.2h-1.414v.847h-.556q.018-.291.032-.611c.009-.212.014-.392.014-.538V368.81c0-.232,0-.418-.01-.562s-.012-.257-.018-.341c.183.018.362.032.538.041s.4.013.685.013c.3,0,.542-.006.734-.018s.367-.028.525-.045c-.007.048-.012.1-.019.15s-.011.11-.013.178,0,.147,0,.241v1.647c0,.079,0,.162.009.247a4.945,4.945,0,0,0,.6-.429,4.94,4.94,0,0,0,.506-.5,4.515,4.515,0,0,0,.442-.6c.138-.22.273-.463.407-.73-.195,0-.358,0-.489.005l-.355.008c-.107,0-.209.01-.306.019l-.337.032V367.6c.237.024.51.045.821.06s.7.026,1.176.032Zm-3.74-2.564c-.067-.128-.127-.238-.183-.333s-.107-.18-.159-.259a2.754,2.754,0,0,0-.164-.224c-.058-.069-.123-.145-.2-.224l.355-.292c.085.092.157.172.215.243s.114.144.169.223.113.167.177.265.142.219.233.364Zm.775,4.188h-1.414v1.387h1.414Zm2.965-4.37h-1.158v.985h1.158Zm0,1.414h-1.158v.894h1.158Zm.53-.429h1.222v-.985h-1.222Zm0,1.323h1.222v-.894h-1.222Z"/><path d="M-87.557,367.1a9.521,9.521,0,0,1-.516,1.231,11.3,11.3,0,0,1-.67,1.141,1,1,0,0,0-.575-.329,5.419,5.419,0,0,0,.52-.615,8.564,8.564,0,0,0,.5-.776,8.558,8.558,0,0,0,.428-.857,6.842,6.842,0,0,0,.311-.863q-.5,0-.844.023c-.228.015-.428.032-.6.051v-.576q.255.029.621.046c.243.012.517.022.821.028v-1.351l-.584.092c-.189.03-.353.052-.493.063a.929.929,0,0,0-.3-.565c.329,0,.626-.012.894-.036s.514-.057.739-.1a4.734,4.734,0,0,0,.625-.15,4.229,4.229,0,0,0,.552-.219,1.82,1.82,0,0,0,.146.273,1.208,1.208,0,0,0,.155.2c.067.067.091.114.073.141s-.052.035-.1.023a.879.879,0,0,0-.323-.019,2.338,2.338,0,0,0-.415.082c-.067.019-.137.037-.21.056s-.152.036-.237.054v1.451c.273-.006.526-.016.757-.028s.42-.027.566-.046v.576c-.153-.019-.343-.035-.571-.046s-.479-.022-.752-.028v.629q.137.118.314.279t.356.324c.119.109.23.218.333.324s.189.2.256.277l-.429.42c-.11-.175-.239-.368-.388-.574a5.972,5.972,0,0,0-.442-.548V369.8q0,.337.018.748c.012.274.027.547.045.821h-.656c.024-.274.042-.547.054-.821s.019-.523.019-.748Zm4.47,1.523c.225,0,.42,0,.584-.01s.311-.011.442-.017.255-.014.374-.024.245-.019.378-.031v.584c-.133-.018-.259-.032-.378-.041s-.243-.018-.374-.027-.278-.016-.442-.019-.359-.005-.584-.005v1.314c.279,0,.532,0,.757,0s.432-.008.62-.014.362-.013.52-.023.314-.02.465-.031v.592l-.51-.037c-.177-.011-.37-.022-.58-.031s-.442-.016-.7-.019-.55,0-.884,0-.616,0-.863,0-.468.009-.665.019-.381.02-.548.031l-.506.037v-.592c.164.011.325.022.483.031s.327.017.507.023.378.011.6.014.472,0,.757,0v-1.314c-.219,0-.41,0-.574.01l-.447.018c-.134.006-.261.015-.379.027s-.242.024-.369.037v-.584l.369.036c.118.013.245.022.379.028s.282.01.447.013.355.005.574.005v-1.2q-.364,0-.647.009l-.516.018c-.155.006-.3.014-.438.023s-.272.019-.406.032v-.565c.159.011.312.022.461.031s.312.018.488.023.374.011.593.014.477,0,.775,0,.558,0,.781,0,.42-.008.6-.014.339-.013.488-.023.3-.02.452-.031v.565l-.415-.037c-.137-.012-.287-.02-.448-.027s-.339-.01-.533-.014-.423,0-.684,0Zm1.724-2.418c-.134-.011-.271-.022-.411-.031s-.29-.017-.451-.023-.337-.01-.525-.014-.4,0-.629,0-.438,0-.621,0-.349.008-.5.014-.294.013-.424.023-.263.02-.4.031q.027-.264.045-.634c.012-.246.019-.505.019-.78s-.007-.5-.019-.692-.027-.381-.045-.557c.134.012.266.023.4.031s.272.018.424.024.319.011.5.014.39,0,.621,0c.462,0,.848-.005,1.158-.017s.6-.03.858-.055c-.025.176-.041.361-.051.552s-.013.424-.013.7.005.539.013.794A5.542,5.542,0,0,0-81.363,366.209Zm-.593-2.171h-2.792v1.679h2.792Z"/></g></svg>