<svg xmlns="http://www.w3.org/2000/svg" xmlns:xlink="http://www.w3.org/1999/xlink" width="58.091" height="72.358" viewBox="0 0 58.091 72.358"><defs><clipPath id="a"><rect width="23.599" height="9.928" transform="translate(-105.503 239.535)" fill="none"/></clipPath><clipPath id="b"><rect width="23.599" height="9.928" transform="translate(-105.503 239.6)" fill="none"/></clipPath></defs><g transform="translate(122.759 -219.386)"><circle cx="29.046" cy="29.046" r="29.046" transform="translate(-122.759 219.386)" fill="#6aa376"/><path d="M-78.992,238.694c-.378-3.791-6.819-6.809-14.711-6.809s-14.333,3.018-14.711,6.809h-.018V260.53h29.459V238.694Z" fill="#ec9a44"/><path d="M-107.037,238.2c-1.038-.136-2.691.483-4.41,2.161a2.327,2.327,0,0,0-.611.881,3.15,3.15,0,0,0-2.88,3.12,3.109,3.109,0,0,0,2.471,3.587,3.109,3.109,0,0,0,3.042-3.117,3.342,3.342,0,0,0-1.691-3.376,4.113,4.113,0,0,0,.934-.859,4.352,4.352,0,0,1,3.08-1.93.322.322,0,0,0,.323-.195C-106.746,238.353-106.857,238.219-107.037,238.2Z" fill="#e99d3d"/><path d="M-80.348,238.2c1.038-.136,2.692.483,4.41,2.161a2.327,2.327,0,0,1,.611.881,3.15,3.15,0,0,1,2.88,3.12,3.109,3.109,0,0,1-2.471,3.587,3.109,3.109,0,0,1-3.042-3.117,3.342,3.342,0,0,1,1.691-3.376,4.113,4.113,0,0,1-.934-.859,4.352,4.352,0,0,0-3.08-1.93.322.322,0,0,1-.323-.195C-80.639,238.353-80.528,238.219-80.348,238.2Z" fill="#e99d3d"/><rect width="23.599" height="0.977" rx="0.486" transform="translate(-105.503 237.689)" fill="#e25647"/><rect width="23.599" height="9.928" transform="translate(-105.503 239.535)" fill="#fff"/><g clip-path="url(#a)"><line x2="1.719" y2="1.517" transform="translate(-90.663 246.844)" fill="none" stroke="#000" stroke-linecap="round" stroke-miterlimit="10" stroke-width="3"/><line x2="1.719" y2="1.517" transform="translate(-90.663 246.844)" fill="none" stroke="#000" stroke-linecap="round" stroke-miterlimit="10" stroke-width="3"/><line y2="2.293" transform="translate(-88.695 248.613)" fill="none" stroke="#000" stroke-linecap="round" stroke-miterlimit="10" stroke-width="3"/><line x1="1.719" y2="1.517" transform="translate(-88.38 246.783)" fill="none" stroke="#000" stroke-linecap="round" stroke-miterlimit="10" stroke-width="3"/></g><g clip-path="url(#b)"><circle cx="3.665" cy="3.665" r="3.665" transform="translate(-92.327 245.589)" fill="none" stroke="#000" stroke-miterlimit="10" stroke-width="3"/></g><circle cx="2.93" cy="2.93" r="2.93" transform="translate(-105.646 252.382)" fill="#fff"/><circle cx="2.93" cy="2.93" r="2.93" transform="translate(-87.618 252.382)" fill="#fff"/><rect width="9.223" height="0.651" rx="0.324" transform="translate(-98.314 253.724)" fill="#002c45"/><rect width="9.223" height="0.651" rx="0.324" transform="translate(-98.314 255.181)" fill="#002c45"/><rect width="9.223" height="0.651" rx="0.324" transform="translate(-98.314 256.638)" fill="#002c45"/><rect width="31.883" height="1.953" rx="0.972" transform="translate(-109.645 260.107)" fill="#113140"/><rect width="7.767" height="5.013" rx="2.494" transform="translate(-107.555 261.159)" fill="#113140"/><rect width="7.767" height="5.013" rx="2.494" transform="translate(-87.618 261.159)" fill="#113140"/><path d="M-104.9,285.322c-.086-.013-.191-.023-.315-.032s-.262-.017-.411-.023-.305-.01-.47-.014-.322,0-.474,0q-.465,0-.9.018c-.292.012-.526.031-.7.055v-.557c.176.018.41.034.7.046s.593.018.9.018c.152,0,.31,0,.474-.005s.321-.007.47-.013l.411-.018c.124-.007.229-.015.315-.028Zm-.22,1.186c-.146-.013-.343-.023-.592-.032s-.5-.014-.739-.014c-.128,0-.261,0-.4.005l-.4.009c-.128,0-.245.007-.351.014s-.2.012-.269.018v-.53c.152.013.36.023.625.033s.527.013.789.013q.355,0,.729-.013c.25-.01.45-.02.6-.033Zm-.072,1.186c-.146-.013-.344-.023-.594-.033s-.5-.013-.739-.013-.5.005-.752.013-.449.02-.588.033v-.538q.228.018.588.031c.24.01.491.014.752.014.238,0,.48,0,.726-.014s.448-.019.607-.031Zm-2.062,3.859h-.593c.012-.2.023-.392.032-.589s.014-.369.014-.515v-1.214c0-.456-.01-.766-.028-.93q.273.027.579.041t.725.014c.3,0,.554-.007.767-.019s.4-.027.556-.045c-.012.1-.021.211-.027.341s-.009.331-.009.6V290.4c0,.14,0,.295.013.465s.02.313.033.429h-.575V290.7h-1.487Zm.629-6.87c-.079-.128-.147-.24-.205-.338a2.289,2.289,0,0,0-.178-.259c-.061-.076-.124-.151-.191-.224s-.146-.152-.238-.237l.429-.31c.085.1.157.181.214.251s.116.143.174.218.12.164.187.261.152.218.255.364Zm.858,4.133h-1.487v1.45h1.487Zm2.91-4.069c-.244,0-.452,0-.625.005l-.465.009q-.206,0-.384.018l-.387.032v-.566c.14.013.269.023.387.032s.247.015.384.018.29.007.461.009.379.005.629.005c-.012-.158-.024-.32-.037-.488s-.024-.293-.036-.378c.115.012.225.022.328.031s.222.014.356.014c.079,0,.123.017.132.05s-.014.072-.068.114a.446.446,0,0,0-.128.356v.3h.639q.255,0,.456-.009c.133-.006.257-.014.369-.023s.239-.019.379-.032v.566l-.379-.032c-.112-.009-.236-.015-.369-.018l-.456-.009c-.17,0-.383-.005-.639-.005v.675h.534c.149,0,.284,0,.406-.009s.237-.011.346-.014.231-.011.365-.023v.5l-.365-.018-.346-.018c-.122-.006-.257-.009-.406-.009h-.534v.647h.643q.288,0,.543-.009l.5-.018q.242-.009.507-.027v.51c-.189-.012-.365-.021-.53-.027l-.515-.018c-.179-.006-.379-.009-.6-.009h-1.551c-.213,0-.406,0-.58.009l-.5.018c-.158.006-.331.015-.52.027v-.51c.171.012.327.021.47.027l.447.018c.155.006.323.009.5.009h.634v-.647l-.908.018q-.389.009-.753.027v-.5c.243.012.494.022.753.028l.908.018Zm-.949,6.942h-.611c.03-.243.052-.476.064-.7s.018-.424.018-.606v-1.871c0-.218,0-.419,0-.6s-.011-.337-.023-.465l.433.032c.131.009.263.015.4.018l.433.01c.155,0,.336,0,.543,0s.389,0,.547,0l.443-.01c.137,0,.272-.009.406-.018l.437-.032c-.012.2-.021.383-.027.566s-.009.353-.009.511v2.39a.892.892,0,0,1-.064.374.413.413,0,0,1-.214.205,1.267,1.267,0,0,1-.406.091q-.255.022-.639.023a2.179,2.179,0,0,0-.036-.3,1.291,1.291,0,0,0-.119-.319,4.762,4.762,0,0,0,.479.1.682.682,0,0,0,.278-.008.2.2,0,0,0,.133-.11.587.587,0,0,0,.031-.214V290.1h-2.49Zm2.49-3.74h-2.49v.629h2.49Zm0,1.058h-2.49v.675h2.49Z"/><path d="M-97.955,286.3c-.067.146-.131.276-.192.392s-.12.227-.178.333a3.313,3.313,0,0,1-.187.3c-.067.1-.136.2-.21.311a.987.987,0,0,0-.251-.242.892.892,0,0,0-.314-.087,5.691,5.691,0,0,0,.6-.761,6.055,6.055,0,0,0,.542-1.063q.255-.63.415-1.168a4.04,4.04,0,0,0,.178-.949,1.852,1.852,0,0,0,.342.128c.082.018.169.034.26.046.134.012.21.046.228.1s-.024.11-.128.164a.2.2,0,0,0-.05.051,1.3,1.3,0,0,0-.1.164c-.042.082-.1.2-.164.36s-.155.371-.264.639v6.705h-.63c.031-.262.055-.561.073-.9s.028-.67.028-1Zm2.837,1.322c.134,0,.255,0,.365-.013a2.463,2.463,0,0,0,.356-.059v.611a3.082,3.082,0,0,0-.37-.06c-.107-.008-.227-.013-.36-.013h-.831v1.3h1.132c.134,0,.255,0,.365-.013a2.474,2.474,0,0,0,.356-.06v.593a3.053,3.053,0,0,0-.37-.059c-.107-.009-.227-.014-.36-.014h-1.123v1.816h-.592c.012-.11.022-.233.031-.37s.018-.275.028-.415.015-.276.018-.41,0-.253,0-.356v-4.9c0-.3-.007-.555-.019-.753a2.8,2.8,0,0,0-.063-.479c.085.013.238.023.46.033s.47.013.744.013.515-.005.743-.013.382-.02.461-.033c-.012.092-.022.253-.027.484s-.01.487-.01.766,0,.518.01.749.015.4.027.5c-.086-.012-.205-.022-.36-.032s-.309-.013-.461-.013h-1v1.194Zm.465-3.2h-1.305v1.569h1.305Zm2.071,5.856a5.762,5.762,0,0,1-.89.776,6.931,6.931,0,0,1-1.19.693,1.041,1.041,0,0,0-.164-.278,1.936,1.936,0,0,0-.283-.251,4.311,4.311,0,0,0,1.181-.474,4.161,4.161,0,0,0,1.035-.876,6.874,6.874,0,0,1-.538-.94,9.431,9.431,0,0,1-.428-1.085c-.049,0-.1,0-.151.008s-.108.013-.169.019v-.5c.074.006.168.011.283.014l.374.009.415.009c.143,0,.281.005.416.005s.258,0,.41-.005l.442-.009.388-.009c.116,0,.2-.008.246-.014a11.494,11.494,0,0,1-.465,1.4A5.771,5.771,0,0,1-92.3,289.9a4.769,4.769,0,0,0,1.55,1.186.948.948,0,0,0-.255.192.982.982,0,0,0-.173.274,7.554,7.554,0,0,1-.766-.607A6.213,6.213,0,0,1-92.582,290.275Zm1.1-3.7c-.054-.006-.127-.011-.218-.018s-.19-.01-.3-.013l-.323-.01c-.11,0-.21,0-.3,0s-.2,0-.31,0-.216.008-.319.014l-.288.019c-.088.005-.159.012-.214.018v-.484H-92v-1.633H-93.7v-.483c.055.006.124.012.209.018l.279.018c.1.006.2.011.31.014s.208.005.305.005c.189,0,.377-.005.566-.014s.371-.023.548-.041c-.007.1-.011.26-.014.488s0,.482,0,.762,0,.526,0,.775S-91.491,286.453-91.479,286.58Zm-1.13,2.929a3.787,3.787,0,0,0,.469-.794,3.848,3.848,0,0,0,.26-.9h-1.505A5.7,5.7,0,0,0-92.609,289.509Z"/><path d="M-88.9,289.637a7.987,7.987,0,0,1-.3.907q-.178.451-.388.863l-.52-.21c.073-.116.139-.228.2-.338a3.82,3.82,0,0,0,.165-.356c.051-.127.1-.272.155-.433s.11-.357.178-.588Zm-.118-3.1a3.465,3.465,0,0,0-.438.068,2.966,2.966,0,0,0-.438.133,1.366,1.366,0,0,0-.055-.269.878.878,0,0,0-.137-.251,4.311,4.311,0,0,0,.972-1.068,11.475,11.475,0,0,0,.9-1.705,2.326,2.326,0,0,0,.315.187,1.556,1.556,0,0,0,.259.1.123.123,0,0,1,.105.114.117.117,0,0,1-.087.123.571.571,0,0,0-.187.128,1.763,1.763,0,0,0-.177.238q-.165.282-.484.729t-.784,1.022l1.459-.055a7.359,7.359,0,0,0,.4-.625q.132-.241.224-.451c.1.067.187.131.269.191a1.529,1.529,0,0,0,.232.146c.079.043.117.09.114.142s-.038.086-.105.1a.363.363,0,0,0-.159.105,3.389,3.389,0,0,0-.269.324l-.351.442c-.119.149-.25.311-.393.488l-.483.593q-.27.328-.625.757c.328-.024.648-.056.958-.1s.571-.083.784-.132a5.424,5.424,0,0,0-.4-.675l.419-.247a6.857,6.857,0,0,1,.443.748c.136.268.263.536.379.8l-.466.2c-.03-.067-.059-.135-.087-.2s-.056-.138-.086-.205l-1.788.292c-.195.03-.362.06-.5.09a1.8,1.8,0,0,0-.365.119,2.05,2.05,0,0,0-.091-.319,1.624,1.624,0,0,0-.192-.356,1.029,1.029,0,0,0,.306-.114,1.789,1.789,0,0,0,.369-.287,6.971,6.971,0,0,0,.493-.539c.188-.224.414-.516.675-.875Zm.894,4.561c-.067-.353-.13-.643-.187-.871s-.13-.458-.214-.689l.438-.146a7.312,7.312,0,0,1,.264.721q.119.383.228.848Zm1.277-.41a6.419,6.419,0,0,0-.328-.726,4.776,4.776,0,0,0-.429-.661l.365-.255q.273.373.461.684t.369.693Zm3.9-6h-2.008q-.146,0-.324.009c-.118.007-.237.015-.355.028s-.231.025-.338.041a2.244,2.244,0,0,0-.26.05v-.721a4.037,4.037,0,0,0,.766.091q.529.027,1.269.028c.492,0,.876-.01,1.149-.028a3.837,3.837,0,0,0,.666-.091c-.018.122-.031.247-.037.374s-.008.277-.008.447v1.633c0,.261,0,.507.013.735s.02.469.032.725h-.565v-.639h-2.473V290.3a.649.649,0,0,0,.059.3.426.426,0,0,0,.228.183,1.694,1.694,0,0,0,.489.091q.318.023.839.022.391,0,.657-.013a.873.873,0,0,0,.429-.119.63.63,0,0,0,.246-.337,3.167,3.167,0,0,0,.128-.671,1.388,1.388,0,0,0,.323.247,1.374,1.374,0,0,0,.315.1,3.46,3.46,0,0,1-.292.734,1.046,1.046,0,0,1-.392.4,1.514,1.514,0,0,1-.6.164c-.241.021-.546.032-.917.032q-.685,0-1.095-.032a1.779,1.779,0,0,1-.625-.137.513.513,0,0,1-.279-.3,1.726,1.726,0,0,1-.063-.52V287.62c0-.206,0-.363-.009-.469a2.736,2.736,0,0,0-.037-.315c.067.012.134.021.2.028l.237.018c.091.006.2.009.329.009h2.3Z"/><path d="M-79.035,284.537q-.192.3-.438.643c-.164.228-.332.458-.5.689a2.923,2.923,0,0,0,.479.055c.167.006.324.009.47.009.213,0,.425-.007.639-.023a2.871,2.871,0,0,0,.492-.068v.565a1.793,1.793,0,0,0-.365-.05c-.158-.009-.334-.016-.529-.023v1.15q.355-.009.68-.028a3.094,3.094,0,0,0,.479-.054v.556a4.059,4.059,0,0,0-.479-.041q-.324-.014-.68-.023v2.19c.219-.067.423-.135.611-.206a4.139,4.139,0,0,0,.475-.2,1.268,1.268,0,0,0-.023.274,1.1,1.1,0,0,0,.05.273l-1.022.274q-.438.119-.775.219t-.6.2c-.176.067-.341.137-.493.21a1.924,1.924,0,0,0-.077-.32,1.874,1.874,0,0,0-.151-.319,4.668,4.668,0,0,0,.693-.082c.262-.049.53-.106.8-.173v-2.336c-.115,0-.236,0-.36,0s-.245.008-.361.013-.22.014-.314.023l-.224.023V287.4a1.809,1.809,0,0,0,.228.031c.1.01.2.017.315.023s.231.013.356.018.245.01.36.01v-1.15c-.139.007-.281.015-.424.028s-.275.027-.4.045v-.346c-.067.1-.133.19-.2.278s-.134.175-.2.26a1.214,1.214,0,0,0-.219-.219,1.283,1.283,0,0,0-.283-.146,6.076,6.076,0,0,0,.6-.593,7.724,7.724,0,0,0,.557-.7,6.411,6.411,0,0,0,.451-.744,3.544,3.544,0,0,0,.288-.725,1.325,1.325,0,0,0,.255.16,1.451,1.451,0,0,0,.292.1c.085.018.126.057.123.114a.174.174,0,0,1-.114.142.852.852,0,0,0-.255.237q.454.311.784.538c.219.152.416.295.593.429l-.383.429c-.158-.17-.34-.349-.547-.534S-78.8,284.714-79.035,284.537Zm-1.086,5.428a4.237,4.237,0,0,0-.21-.607,3.868,3.868,0,0,0-.319-.606l.42-.256c.067.128.126.241.178.338s.1.191.146.282.089.183.132.274.088.192.137.3Zm2.518-1.505a6.144,6.144,0,0,0-.251.561c-.088.222-.166.424-.232.607l-.411-.146a1.631,1.631,0,0,0,.11-.228c.036-.092.073-.192.109-.3s.071-.225.105-.346.062-.243.087-.365Zm2.135-1.35q-.411,0-.776.009l-.661.018c-.2.006-.364.014-.5.023s-.228.017-.283.023v-.539a3.546,3.546,0,0,0,.479.055c.2.012.391.019.579.019h1.961l.247-.657h-2.053a2.374,2.374,0,0,0-.424.032.943.943,0,0,0-.306.105c-.03-.1-.057-.177-.082-.238s-.064-.152-.118-.273q.237-.064.547-.621a10.178,10.178,0,0,0,.684-1.7,3.5,3.5,0,0,0,.329.183,1.1,1.1,0,0,0,.255.082c.073.012.108.043.1.091s-.047.088-.132.119a.544.544,0,0,0-.174.137,1.388,1.388,0,0,0-.2.337h1.094c.292,0,.58-.007.863-.023s.539-.037.77-.068l-.894,2.491q.565,0,.9-.023c.225-.016.389-.032.492-.051v.539a4.3,4.3,0,0,0-.67-.055q-.516-.018-1.529-.018v1.2c.128.213.265.422.411.629a4.943,4.943,0,0,0,.7-.734,3.806,3.806,0,0,0,.479-.816,2.149,2.149,0,0,0,.232.2c.071.051.151.108.242.169.061.036.088.075.083.118s-.052.085-.138.128a1.861,1.861,0,0,0-.255.169,1.888,1.888,0,0,0-.246.223q-.21.237-.42.461t-.42.424a7.114,7.114,0,0,0,.844.908,3.61,3.61,0,0,0,.917.615,1.132,1.132,0,0,0-.237.256,1.56,1.56,0,0,0-.146.292,7.165,7.165,0,0,1-1.154-1.072,7.953,7.953,0,0,1-.89-1.246v1.716a1.379,1.379,0,0,1-.054.415.537.537,0,0,1-.2.273,1.03,1.03,0,0,1-.4.156,4.037,4.037,0,0,1-.657.059.882.882,0,0,0-.018-.31,1.229,1.229,0,0,0-.146-.329,5.153,5.153,0,0,0,.538.064.669.669,0,0,0,.287-.032.194.194,0,0,0,.119-.146,1.425,1.425,0,0,0,.023-.287V289.29c-.164.134-.348.287-.552.461s-.405.345-.6.515-.38.33-.547.479l-.4.351a1.6,1.6,0,0,0-.393-.538,4.486,4.486,0,0,0,.57-.315q.324-.206.662-.451t.666-.516c.219-.179.416-.348.593-.506Zm-.83,1.77a5.625,5.625,0,0,0-.571-.5c-.191-.146-.409-.295-.652-.447l.292-.4q.355.237.675.46c.213.149.417.3.612.46Zm2.362-4.16H-76.18q-.127.282-.228.515c-.067.155-.134.3-.2.433h2.326Z"/></g></svg>