<svg xmlns="http://www.w3.org/2000/svg" width="83" height="83" viewBox="0 0 82.7 82.7"><path d="M82.7 41.2c0 22.8-18.5 41.4-41.4 41.4C18.5 82.6 0 64.1 0 41.2 0 18.4 18.5-0.1 41.4-0.1 64.2-0.1 82.7 18.4 82.7 41.2" fill="#C7C75D"/><path d="M20.9 20.3v45.1c0 3.9 6 3.9 6 0V20.3C26.9 16.4 20.9 16.4 20.9 20.3" fill="#306466"/><polygon points="67.4 44.5 24.8 44.5 24.8 22.4 67.4 22.4 56.4 33.5 " fill="#D06736"/><path d="M67.4 43h-42.6l1.5 1.5v-22.1l-1.5 1.5h42.6l-1.1-2.6c-3.7 3.7-7.4 7.4-11.1 11.1 -0.6 0.6-0.6 1.5 0 2.1 3.7 3.7 7.4 7.4 11.1 11.1 1.4 1.4 3.5-0.8 2.1-2.1 -3.7-3.7-7.4-7.4-11.1-11.1v2.1l11.1-11.1c0.9-0.9 0.2-2.6-1.1-2.6h-42.6c-0.8 0-1.5 0.7-1.5 1.5v22.1c0 0.8 0.7 1.5 1.5 1.5h42.6C69.4 46 69.4 43 67.4 43" fill="#D06736"/></svg>
