<svg xmlns="http://www.w3.org/2000/svg" width="45.529" height="72.263" viewBox="0 0 45.529 72.263"><g transform="translate(77.655 -982.593)"><circle cx="3.333" cy="3.333" r="3.333" transform="translate(-41.292 1005.643)" fill="none" stroke="#5ec93a" stroke-miterlimit="10" stroke-width="5"/><circle cx="5.614" cy="5.614" r="5.614" transform="translate(-50.941 986.521)" fill="none" stroke="#40cbe2" stroke-miterlimit="10" stroke-width="7.857"/><rect width="2.486" height="7.042" transform="translate(-67.902 1047.813)" fill="#c87c2f"/><path d="M-54.87,1034.764c-.016,6.775-4.926,14.708-11.392,14.707-6.41,0-11.326-7.8-11.392-14.5-.07-6.989,5.114-15.011,11.6-14.913C-59.7,1020.154-54.855,1028.011-54.87,1034.764Z" fill="#8ab042"/><rect width="2.486" height="7.042" transform="translate(-49.548 1047.813)" fill="#c87c2f"/><path d="M-36.994,1033.522c-.427,6.589-5.157,14.711-11.392,14.706-6.262-.006-10.871-8.21-11.392-14.706-.639-7.969,4.551-17.372,10.771-17.607C-42.62,1015.675-36.451,1025.151-36.994,1033.522Z" fill="#52773e"/></g></svg>