<svg xmlns="http://www.w3.org/2000/svg" width="41.395" height="79.553" viewBox="0 0 41.395 79.553"><g transform="translate(63.88 -976.356)"><circle cx="3.333" cy="3.333" r="3.333" transform="translate(-61.38 1001.545)" fill="none" stroke="#fc6ddd" stroke-miterlimit="10" stroke-width="5"/><circle cx="3.86" cy="3.86" r="3.86" transform="translate(-58.809 978.856)" fill="none" stroke="#5ec93a" stroke-miterlimit="10" stroke-width="5"/><circle cx="5.263" cy="5.263" r="5.263" transform="translate(-44.878 991.879)" fill="none" stroke="#e5d03e" stroke-miterlimit="10" stroke-width="7.5"/><rect width="2.486" height="7.042" transform="translate(-32.238 1055.909) rotate(-180)" fill="#c87c2f"/><path d="M-45.27,1035.818c.015,6.774,4.926,14.707,11.392,14.706,6.41,0,11.326-7.8,11.392-14.5.069-6.989-5.114-15.011-11.6-14.913C-40.442,1021.207-45.286,1029.065-45.27,1035.818Z" fill="#8ab042"/><rect width="2.486" height="7.042" transform="translate(-50.592 1055.909) rotate(-180)" fill="#c87c2f"/><path d="M-63.147,1034.575c.427,6.59,5.158,14.712,11.393,14.706,6.262-.005,10.871-8.21,11.392-14.706.639-7.969-4.551-17.371-10.771-17.606C-57.52,1016.728-63.689,1026.2-63.147,1034.575Z" fill="#52773e"/></g></svg>