<svg xmlns="http://www.w3.org/2000/svg" width="38.423" height="38.423" viewBox="0 0 38.423 38.423"><g transform="translate(136.664 -347.669)"><rect width="38.423" height="38.423" rx="17.743" transform="translate(-136.664 347.669)" fill="#cece5b"/><text transform="translate(-123.722 348.894)" fill="#fff" font-size="6.672" font-family="PingFangTC-Regular, PingFang TC"><tspan x="0" y="7">到達</tspan><tspan y="7" font-family="Helvetica"></tspan></text><circle cx="2.145" cy="2.145" r="2.145" transform="translate(-124.646 358.299)" fill="#fff"/><path d="M-117.884,364.78a1.284,1.284,0,0,0-1.073-1.3l-7.414-.047c-1.086-.078-1.192.71-1.192.71l-.338,7.667c-.045,1.962.97,1.849.97,1.849.9.045,1.105-.947,1.105-.947l.158-5.5.18.2v4.1l.045,9.967a1.34,1.34,0,0,0,1.263,1.285,1.156,1.156,0,0,0,1.127-1.127l.09-7.684c.008-.713.465-.553.465-.553.36.056.277.706.277.706l.093,6.948c.047,1.865,1.353,1.679,1.353,1.679,1.072-.327.979-1.679.979-1.679l-.187-13.662.373.186.187,4.477c.28,1.772,1.306,1.538,1.306,1.538a1.186,1.186,0,0,0,.792-1.025Zm-4.645,4.528-.953-1.2.516-2.836-.411-.543.758-.7.758.632-.295.605.423,2.851Z" fill="#fff"/><circle cx="2.145" cy="2.145" r="2.145" transform="translate(-113.802 360.041)" fill="#fff"/><path d="M-113.842,365.115h4.561s.741-.067,1.3,1.438l2.067,5.819s.225,1.034-.517,1.236c0,0-1.011.472-1.572-1.281l-.809-2.381-.18-.023,1.5,5.37a.984.984,0,0,1-.112.786s.2-.045-.18.157l-1.078.045-.061,5.326s-.163,1.093-1.146,1.129c0,0-1.2.036-1.2-1l-.018-5.152a.489.489,0,0,0-.856-.091l.055,5.316s.018.764-1.038,1a1.169,1.169,0,0,1-1.365-1.2v-5.388h-1s-.127.146-.328-.255a1.048,1.048,0,0,1-.019-.728l1.382-4.682v-.685l-1.261,3.389s-.433.739-1.1.486c0,0-1.063-.108-.6-1.46l2.145-6.182A1.341,1.341,0,0,1-113.842,365.115Z" fill="#fff"/></g></svg>