<svg xmlns="http://www.w3.org/2000/svg" width="38.423" height="38.423" viewBox="0 0 38.423 38.423"><g transform="translate(136.664 -443.422)"><rect width="38.423" height="38.423" rx="17.743" transform="translate(-136.664 443.422)" fill="#cece5b"/><text transform="translate(-123.544 445.276)" fill="#fff" font-size="6.672" font-family="PingFangTC-Regular, PingFang TC"><tspan x="0" y="7">自返</tspan><tspan y="7" font-family="Helvetica"></tspan></text><path d="M-122.218,460.125l8.277.025a4.247,4.247,0,0,1-3.806,3.832S-121.988,464.161-122.218,460.125Z" fill="#fff"/><path d="M-122.141,458.873h10.525a.989.989,0,0,0,.562-.255s.357-1.1-.614-1.2h-3.269a3.352,3.352,0,0,0-3.909-1.686A3.587,3.587,0,0,0-122.141,458.873Z" fill="#fff"/><path d="M-109.516,476.45l-3.008-8.47c-.818-2.191-1.9-2.093-1.9-2.093h-6.638a1.949,1.949,0,0,0-2.067,1.436l-3.122,9c-.682,1.967.866,2.125.866,2.125.971.367,1.6-.709,1.6-.709l1.837-4.932v1l-.035,5.715h8.125l-.141-6.633.262.033,1.177,3.466c.818,2.551,2.289,1.864,2.289,1.864C-109.189,477.954-109.516,476.45-109.516,476.45Z" fill="#fff"/></g></svg>