<svg xmlns="http://www.w3.org/2000/svg" width="220" height="48" viewBox="0 0 220 48">
  <path id="Path_45" data-name="Path 45" d="M341.031,36.93c2.627-1.689,3.753-4.128,5.254-6.192,5.254-8.631,9.007-17.826,13.51-26.832a22,22,0,0,1,.938-2.064c.563-.563.375-2.252,1.689-1.689,1.126.375.938,1.689.563,2.627a75.8,75.8,0,0,1-5.066,14.261c-3.753,7.318-7.881,14.636-11.634,21.954l-.188.188c-1.313,1.876-2.252,4.5-5.066,3.94s-3-3.565-3.378-5.817c-1.689-8.444-2.252-17.075-3.378-25.519-.375-3-.751-5.817-2.252-8.444-.563-.938-1.313-2.064.188-2.627,1.313-.563,2.064-.188,2.815,1.5,3.753,9.194,4.316,18.952,5.254,28.709C340.468,32.8,340.656,34.679,341.031,36.93Z" transform="translate(-211.396 -0.04)" fill="#a570c4"/>
  <path id="Path_46" data-name="Path 46" d="M383.5,18.711c-1.5,4.5-2.815,8.819-5.066,12.759-.563.938-.751,2.627-2.252,2.439s-1.876-1.5-2.252-2.815a31.3,31.3,0,0,1-.938-9.382c0-3.378.563-7.13-2.439-9.757a1.6,1.6,0,0,1,.375-2.627c1.126-.751,1.689.188,2.252.938,2.252,3.19,2.064,6.943,2.627,10.508a12.036,12.036,0,0,0,1.689,5.817c.375-3.565,2.439-6,2.815-9.194.188-1.689,1.313-2.815,1.876-4.128s1.689-1.313,2.627.188a15.085,15.085,0,0,1,1.689,4.879,15.4,15.4,0,0,0,2.252,6.38,39.034,39.034,0,0,1,3.565-10.883c.563-.938.563-2.627,2.439-2.064,1.313.563,1.313,1.689,1.126,3a64.489,64.489,0,0,1-6,16.512,1.427,1.427,0,0,1-1.689.938c-.938-.188-1.126-.751-1.314-1.5-.751-3.19-1.313-6.567-2.064-9.757C384.439,20.212,384.439,19.461,383.5,18.711Z" transform="translate(-177.497 7.86)" fill="#a570c4"/>
  <path id="Path_47" data-name="Path 47" d="M357.556,23.912c1.689-.563,2.252-1.689,3.19-2.439s1.689-1.689,3.19-1.876c-.188,2.252-1.689,3.378-3,4.691-2.252,2.064-4.879,3.753-6.38,6.38a1.284,1.284,0,0,1-1.876.375c-.938-.375-1.126-.938-.751-1.689a27.123,27.123,0,0,1,2.064-5.442,23.569,23.569,0,0,0,1.876-7.13c.188-1.313-.375-1.689-1.5-1.313-1.5.563-3,1.126-5.066,1.876.938-2.627,3.19-3.753,4.316-5.629.563-.938,1.876-.188,2.815,0a3.3,3.3,0,0,1,3,4.128A33.922,33.922,0,0,0,357.556,23.912Z" transform="translate(-195.647 9.788)" fill="#a570c4"/>
  <path id="Path_48" data-name="Path 48" d="M354.491,13.371c1.126-2.439.751-3.378-1.689-3.19-1.313,0-3-.751-3-2.252s1.689-2.064,3-2.064c1.876-.188,4.128-1.126,5.442,1.126C359.37,8.68,357.869,11.307,354.491,13.371Z" transform="translate(-195.209 4.756)" fill="#a570c4"/>
  <path id="Path_49" data-name="Path 49" d="M325.932,32.9c-.188-1.126-1.126-1.313-2.064-1.5-3-.938-6.192-1.876-9.194-2.815-3.565-1.126-3.565-1.126-2.627-4.5.188-.751.938-1.5.188-2.252-2.627-.188-2.439,1.689-2.439,3.94-1.876-1.313-4.316-1.876-3.753-4.316.751-2.815,3-3.94,6.192-3.94,1.5,0,3.19.375,4.5-.751a2.39,2.39,0,0,0,1.313-2.627c-.188-1.126-1.313-1.126-2.252-1.313a22.707,22.707,0,0,0-3.565-.188c-1.313-.188-1.876-.563-1.126-1.876,1.126-2.252.563-3-1.876-2.815a6.766,6.766,0,0,0-3.753,1.126c-.563.375-1.126.563-.938,1.5.751,4.691.563,4.879-4.128,4.316-3.19-.375-3.565-1.313-2.064-4.128,1.314-2.815,1.314-3-1.876-3.565a28.2,28.2,0,0,0-3.753-.375,13.909,13.909,0,0,0-3.94.188,2.8,2.8,0,0,0-2.439,2.627c0,1.689,1.5,1.126,2.439,1.5.938.188,2.064.188,3,.375.751.188,2.064.188,1.876,1.5a2.218,2.218,0,0,1-2.064,2.064,49.491,49.491,0,0,0-9.194,1.5,1.435,1.435,0,0,1-1.689-.375,1.136,1.136,0,0,1,.188-1.5c.751-.938,1.876-1.876.751-3.19a3.948,3.948,0,0,0-4.128-1.5,43.826,43.826,0,0,1-4.879.751c-2.815.375-4.316,1.689-3.565,4.316.938,4.128-.188,7.881-1.5,11.634-.563,1.876.375,3.378,2.064,2.815,3-.938,6.192-.751,9.194-1.126,1.689-.188,2.439-1.126,1.876-3-.375-1.5-1.126-3-.563-4.5.188-.751.375-1.5,1.5-1.313.938.188,2.439-.188,2.627.938.375,2.627.751,5.442-.375,7.881-.751,1.689-3,1.5-4.691,1.689-1.5.188-3,.563-2.627,2.627s2.064,1.5,3.377,1.313A105.55,105.55,0,0,0,292.908,31.4c1.689-.375,3-.188,2.627,2.064-.375,1.876.751,3.753.188,5.629-.375,1.5.563,2.252,1.876,2.439a1.98,1.98,0,0,0,2.252-1.876,18.08,18.08,0,0,0,0-4.5c0-.938,0-1.689.938-1.313,2.815.563,4.879-.938,6.943-2.627.938-.751,1.5-.938,2.439.188,3,2.815,6.943,4.128,10.883,5.066a3.678,3.678,0,0,0,3.378-.938C325.182,34.593,326.12,34.03,325.932,32.9ZM277.709,14.89a4.6,4.6,0,0,1-3.565.188C275.645,14.515,276.583,14.89,277.709,14.89ZM272.83,25.023a.867.867,0,0,1-.563-.938,1.241,1.241,0,0,1,1.313-1.126,5.223,5.223,0,0,0,4.316-1.313C277.9,24.085,274.519,25.961,272.83,25.023Zm5.254-5.066a3.867,3.867,0,0,1-3.753-.563.655.655,0,0,1,.188-.375,3.1,3.1,0,0,1,3.565,0ZM294.6,18.643c-2.064,1.126-3.753.563-6,.563C290.656,17.705,292.345,17.893,294.6,18.643Zm.563,3.753a1.128,1.128,0,0,1,.188.751c0,.751-.751.563-1.126.563h-6.943C288.592,22.021,294.221,21.458,295.159,22.4Zm-.751,5.442c-1.313.188-2.815.375-4.128.563h0c-.375,0-.751.188-1.126,0-.938,0-2.627.938-2.627-.751-.188-1.5,1.5-2.064,2.815-1.876a11.973,11.973,0,0,0,4.5-.188c.563-.188,1.314-.563,1.5.563C295.535,26.712,295.722,27.65,294.409,27.838Zm11.634,1.876c-1.876.563-3.753,1.126-5.629,0a10.057,10.057,0,0,1,2.064-.938L302.1,28.4c-.751-.563-2.252.188-2.439-1.313a52.59,52.59,0,0,1,0-5.442c0-.188.375-.375.563-.375.563.188,1.313.751,1.126,1.313-.375,1.313.188,1.126,1.126,1.5,2.064.751,3,2.439,4.5,3.94C307.544,28.588,306.981,29.339,306.043,29.714Z" transform="translate(-267.413 5.863)" fill="#a570c4"/>
  <g id="Group_39" data-name="Group 39" transform="translate(66.149 14.806)">
    <path id="Path_50" data-name="Path 50" d="M321.3,10.1Z" transform="translate(-286.336 -6.029)" fill="#a570c4"/>
    <path id="Path_51" data-name="Path 51" d="M346.074,27.013c-.188-.188.188-.938.375-1.126,1.689-2.439,1.5-3-1.5-3.565-2.439-.375-5.066,0-7.693-.938-2.815-1.126-3.378-3-.751-4.691,1.876-1.313,1.876-2.627,1.126-4.5-3.378-1.5-6.943-.563-10.508-.563-1.126,0-2.064,0-2.252-1.689-.188-1.876-4.5-2.815-5.254-1.126a6.935,6.935,0,0,1-5.254,4.128,1.758,1.758,0,0,0-1.5,2.064c.188,1.313,1.126,1.313,2.064,1.5.751.188,1.689.188,2.439.375,1.689.375,1.5,1.876,1.5,3.19.188,1.5-.938,1.5-2.064,1.5-2.064.188-4.316.375-6.38.563a20.6,20.6,0,0,0-6.567,2.064,2.507,2.507,0,0,0-1.126,2.815c.188.751.751,1.689,1.5,1.313,3.378-1.5,7.13-.375,10.508-1.876,3-1.313,3-1.313,3.565,1.876a12.577,12.577,0,0,1,0,3.753,30.127,30.127,0,0,0,0,5.817c0,.563-.188,1.876,1.126,1.876.938-.188,2.064-.188,2.627-1.313a3.578,3.578,0,0,0,.375-2.439c-.375-3.378.751-6.755,0-10.133-.188-1.5.751-2.439,2.252-2.064,3.94.751,8.068.188,12.009.938a6.623,6.623,0,0,1,5.066,7.318c-.375,2.815-2.627,4.128-6.567,3.753.563,2.627,2.064,3.753,4.691,3.378,1.314-.188,2.627-.188,3.753-.375,1.314-.188,3.565-1.689,3-3.19C345.7,32.83,347.388,29.827,346.074,27.013ZM324.5,20.445c-2.064,0-.938-1.5-1.313-2.064,0-2.252.938-3.753,3.19-3.378,1.126.188,2.815,0,2.815,1.876S326.747,20.445,324.5,20.445Z" transform="translate(-302.666 -7.93)" fill="#a570c4"/>
    <path id="Path_52" data-name="Path 52" d="M330.307,11.117c.375-1.689-1.126-1.876-2.252-2.064-.938-.188-2.064-.375-3-.563-3-.563-3.753,0-3.753,3.19,2.064.563,3.753,1.876,6,1.876A2.434,2.434,0,0,0,330.307,11.117Z" transform="translate(-286.336 -7.608)" fill="#a570c4"/>
    <path id="Path_53" data-name="Path 53" d="M321.3,10.1Z" transform="translate(-286.336 -6.029)" fill="#a570c4"/>
  </g>
  <path id="Path_54" data-name="Path 54" d="M378.653,23.976c-.563-.751-1.5-.188-2.252.188-3.565.938-6.755,3.378-10.508,4.316-1.126.188-2.064.938-3-.375-.938-1.5-1.5-3-.938-4.691.563-1.5,1.876-.751,2.815-.751,4.128-.188,7.881-1.126,10.32-4.879,1.876-3.19.563-7.693-2.627-7.881-2.252,0-4.691-.188-6.755,1.313-4.691,3.378-7.318,7.881-7.506,13.322a8.468,8.468,0,0,0,.188,2.439c.563,4.691,3.565,6.943,8.068,6a21.184,21.184,0,0,0,11.258-6.38C378.277,25.665,379.216,24.727,378.653,23.976Zm-9.007-10.883c.938-.938,1.5-.188,2.064.375.938.751.188,1.313-.375,1.689-1.876,1.5-3.19,3.94-6.38,3Z" transform="translate(-187.847 8.598)" fill="#a570c4"/>
</svg>