<svg width="57" height="8" xmlns="http://www.w3.org/2000/svg">
	<path id="Path_15" data-name="Path 15" d="M457.924,177.981H412.14a3.963,3.963,0,0,1-3.94-3.94h0a3.963,3.963,0,0,1,3.94-3.94h45.784a3.963,3.963,0,0,1,3.94,3.94h0A3.964,3.964,0,0,1,457.924,177.981Z" transform="translate(-405.385 -170.1)" fill="#fff"/>
	<path id="Path_16" data-name="Path 16" d="M416.645,174.416c0,2.252-3.378,3.565-5.629,3.565a4.365,4.365,0,0,1-4.316-4.316c0-2.439,1.876-3.565,4.316-3.565S416.645,172.164,416.645,174.416Z" transform="translate(-406.7 -170.1)" fill="#d3d3d3"/>
</svg>