<svg xmlns="http://www.w3.org/2000/svg" width="72.694" height="17.294" viewBox="0 0 72.694 17.294"><g transform="translate(197.078 -694.469)"><path d="M-124.383,711.763h-72.694V694.469h72.694l-2.345,3.517,2.345,4.1-2.345,4.69Z" fill="#90e0d8" opacity="0.83"/><path d="M-185.915,707.349a.214.214,0,0,1-.159.1.273.273,0,0,1-.192-.037.183.183,0,0,1-.088-.166.209.209,0,0,1,.044-.131,3.626,3.626,0,0,0,.559-1.689.174.174,0,0,1,.083-.131.225.225,0,0,1,.148-.033.233.233,0,0,1,.148.1.238.238,0,0,1,.038.164A4.111,4.111,0,0,1-185.915,707.349Zm-.109-2.7a.236.236,0,0,1-.182-.061.239.239,0,0,1-.087-.176.234.234,0,0,1,.065-.179.255.255,0,0,1,.171-.088q1.26-.067,1.831-.1c.058-.008.087-.037.087-.088v-.9a.077.077,0,0,0-.087-.088h-1.634a.212.212,0,0,1-.164-.072.233.233,0,0,1-.066-.164.23.23,0,0,1,.066-.164.215.215,0,0,1,.164-.071h1.634a.077.077,0,0,0,.087-.088v-.779c0-.051-.029-.076-.087-.076h-1.086a.626.626,0,0,1-.455-.192.624.624,0,0,1-.192-.455v-2.457a.624.624,0,0,1,.192-.455.625.625,0,0,1,.455-.191h2.938a.618.618,0,0,1,.461.191.634.634,0,0,1,.186.455v2.457a.634.634,0,0,1-.186.455.619.619,0,0,1-.461.192h-1.194a.067.067,0,0,0-.077.076v.779c0,.059.025.088.077.088h1.754a.219.219,0,0,1,.165.071.233.233,0,0,1,.065.164.236.236,0,0,1-.065.164.216.216,0,0,1-.165.072h-1.754c-.052,0-.077.029-.077.088v.865a.068.068,0,0,0,.077.078q1.392-.087,1.919-.133a.226.226,0,0,1,.153.061.2.2,0,0,1,.066.148.239.239,0,0,1-.066.17.217.217,0,0,1-.165.071Q-185.345,704.608-186.024,704.652Zm.625-6.4c-.059,0-.088.028-.088.078v2.719c0,.051.029.076.088.076h1.206c.058,0,.088-.025.088-.076v-2.719c0-.05-.03-.078-.088-.078Zm.23.768a.174.174,0,0,1,.011-.137.13.13,0,0,1,.1-.07.17.17,0,0,1,.143.016.188.188,0,0,1,.088.1,7.738,7.738,0,0,1,.307,1.4.227.227,0,0,1-.033.155.222.222,0,0,1-.132.088.17.17,0,0,1-.126-.034.166.166,0,0,1-.071-.109A6.363,6.363,0,0,0-185.169,699.015Zm.427,6.437V705.4a.15.15,0,0,1,.033-.088.165.165,0,0,1,.121-.088.246.246,0,0,1,.164.037.227.227,0,0,1,.1.139,7.3,7.3,0,0,1,.263,1.523.236.236,0,0,1-.06.158.213.213,0,0,1-.148.082.17.17,0,0,1-.143-.043.165.165,0,0,1-.066-.13A7.824,7.824,0,0,0-184.742,705.452Zm2.468-4.332a.067.067,0,0,0,.076-.076v-2.719a.069.069,0,0,0-.076-.078H-183.6a.069.069,0,0,0-.076.078v2.719a.067.067,0,0,0,.076.076Zm-1.382,4.233a.2.2,0,0,1-.011-.071.213.213,0,0,1,.011-.072.173.173,0,0,1,.11-.088.207.207,0,0,1,.274.133,7.8,7.8,0,0,1,.5,1.393.171.171,0,0,1-.017.164.194.194,0,0,1-.136.092.224.224,0,0,1-.165-.032.228.228,0,0,1-.1-.138A6.886,6.886,0,0,0-183.656,705.353Zm.614-4.779a.165.165,0,0,1-.088.085.158.158,0,0,1-.121,0,.156.156,0,0,1-.087-.207q.285-.923.417-1.535a.144.144,0,0,1,.082-.115.167.167,0,0,1,.148-.006.226.226,0,0,1,.115.115.223.223,0,0,1,.016.159Q-182.878,700.144-183.042,700.574Zm.471,4.582a.163.163,0,0,1-.033-.1.15.15,0,0,1,.088-.143.229.229,0,0,1,.307.065,7.624,7.624,0,0,1,.833,1.283.266.266,0,0,1,.006.176.187.187,0,0,1-.115.121.178.178,0,0,1-.159.01.247.247,0,0,1-.126-.11A7.271,7.271,0,0,0-182.571,705.156Zm6.3-5.2a.256.256,0,0,1,.077.188.251.251,0,0,1-.077.185.253.253,0,0,1-.187.076h-2.193c-.058,0-.087.026-.087.079v2.136c0,.053.029.078.087.078h1.338a.615.615,0,0,1,.455.192.619.619,0,0,1,.192.455v3.869a.256.256,0,0,1-.077.188.25.25,0,0,1-.18.076.254.254,0,0,1-.182-.076.26.26,0,0,1-.076-.188V707c0-.043-.022-.064-.066-.064h-3.147a.057.057,0,0,0-.066.064v.276a.241.241,0,0,1-.076.174.248.248,0,0,1-.181.078.229.229,0,0,1-.176-.078.252.252,0,0,1-.071-.174v-3.926a.626.626,0,0,1,.187-.455.611.611,0,0,1,.46-.192h.976a.068.068,0,0,0,.077-.078v-4.976a.256.256,0,0,1,.076-.188.256.256,0,0,1,.187-.076.253.253,0,0,1,.186.076.257.257,0,0,1,.077.188v2.16c0,.051.029.076.087.076h2.193A.253.253,0,0,1-176.266,699.958Zm-1,6.469c.058,0,.088-.025.088-.076v-3.059c0-.051-.03-.078-.088-.078h-3.114a.069.069,0,0,0-.077.078v3.059a.068.068,0,0,0,.077.076Z"/><path d="M-170.576,701.482a.265.265,0,0,1,.1.181.258.258,0,0,1-.049.2.219.219,0,0,1-.165.1.253.253,0,0,1-.2-.049,9.156,9.156,0,0,0-1.578-.931.2.2,0,0,1-.11-.133.161.161,0,0,1-.012-.055.18.18,0,0,1,.044-.109.284.284,0,0,1,.231-.131.4.4,0,0,1,.153.033A8.027,8.027,0,0,1-170.576,701.482Zm-1.184,5.636a.288.288,0,0,1-.176.127.227.227,0,0,1-.2-.039.3.3,0,0,1-.12-.187.185.185,0,0,1-.011-.065.27.27,0,0,1,.044-.154,36,36,0,0,0,1.666-3.2.191.191,0,0,1,.137-.109.2.2,0,0,1,.17.033.309.309,0,0,1,.132.24.388.388,0,0,1-.033.154Q-170.949,705.693-171.76,707.118Zm-.176-9.144a.186.186,0,0,1-.109-.176.169.169,0,0,1,.055-.121.28.28,0,0,1,.219-.131.313.313,0,0,1,.154.045,8.833,8.833,0,0,1,1.546.953.238.238,0,0,1,.109.186.292.292,0,0,1-.055.209.256.256,0,0,1-.175.1.2.2,0,0,1-.186-.058A8.294,8.294,0,0,0-171.936,697.974Zm9.079.516a.232.232,0,0,1,.17.07.241.241,0,0,1,.071.176.217.217,0,0,1-.071.17.24.24,0,0,1-.17.066h-1.59c-.007,0-.011,0-.011.006s0,.008.011.015a.266.266,0,0,1,.187.164.307.307,0,0,1,0,.252q-.384.768-.593,1.108a.051.051,0,0,0,0,.045.039.039,0,0,0,.034.021h1.238a.627.627,0,0,1,.455.188.612.612,0,0,1,.192.459v5.615c0,.32-.116.518-.35.592a5.247,5.247,0,0,1-1.185.076.348.348,0,0,1-.34-.252.156.156,0,0,1,.017-.154.155.155,0,0,1,.137-.076c.183.007.343.011.483.011.212,0,.383,0,.515-.011a.231.231,0,0,0,.159-.04.21.21,0,0,0,.038-.146v-5.7c0-.051-.029-.076-.087-.076h-2.391c-.059,0-.087.025-.087.076v.965c0,.052.028.078.087.078h1.6a.206.206,0,0,1,.159.064.232.232,0,0,1,.06.16.2.2,0,0,1-.06.153.211.211,0,0,1-.159.06h-1.6a.077.077,0,0,0-.087.088v.977a.077.077,0,0,0,.087.088h.724a.633.633,0,0,1,.461.185.628.628,0,0,1,.186.461v1.065a.63.63,0,0,1-.186.453.617.617,0,0,1-.461.193h-2.127c-.03,0-.044.01-.044.033v.076a.221.221,0,0,1-.066.165.223.223,0,0,1-.164.066.24.24,0,0,1-.17-.066.211.211,0,0,1-.071-.165v-1.82a.621.621,0,0,1,.191-.461.636.636,0,0,1,.456-.185h.635c.052,0,.077-.03.077-.088v-.977c0-.058-.025-.088-.077-.088h-1.557a.216.216,0,0,1-.153-.06.2.2,0,0,1-.066-.153.22.22,0,0,1,.066-.16.212.212,0,0,1,.153-.064h1.557a.068.068,0,0,0,.077-.078v-.965a.067.067,0,0,0-.077-.076h-2.291c-.059,0-.088.025-.088.076v6.119a.253.253,0,0,1-.071.176.237.237,0,0,1-.181.076.236.236,0,0,1-.181-.076.25.25,0,0,1-.072-.176V701.23a.612.612,0,0,1,.192-.459.63.63,0,0,1,.455-.188h1.02a.055.055,0,0,0,.05-.027.1.1,0,0,0,.016-.049,7.711,7.711,0,0,0-.5-1.207.217.217,0,0,1-.005-.185.208.208,0,0,1,.137-.131v-.012h-1.316a.236.236,0,0,1-.175-.066.228.228,0,0,1-.066-.17.253.253,0,0,1,.066-.176.228.228,0,0,1,.175-.07h2.808a.068.068,0,0,0,.076-.077v-.779a.252.252,0,0,1,.077-.185.248.248,0,0,1,.186-.079.247.247,0,0,1,.186.079.249.249,0,0,1,.078.185v.779c0,.051.028.077.087.077Zm-2.291,2.093c.007,0,.011,0,.011-.006s0,0-.011,0a.219.219,0,0,1-.126-.127.191.191,0,0,1,.016-.182,10.734,10.734,0,0,0,.559-1.217c.008-.014,0-.031-.011-.049a.063.063,0,0,0-.043-.027h-3a.045.045,0,0,0-.044.027.059.059,0,0,0,0,.049,6.449,6.449,0,0,1,.549,1.217.285.285,0,0,1-.022.187.249.249,0,0,1-.132.122v.009Zm.043,5.11c.052,0,.077-.03.077-.088v-1.326a.068.068,0,0,0-.077-.077H-167.3c-.059,0-.088.026-.088.077V705.6a.078.078,0,0,0,.088.088Z"/><path d="M-155.807,704.837a.4.4,0,0,1,.285-.131.455.455,0,0,1,.154.034.154.154,0,0,1,.1.125.176.176,0,0,1-.049.16,12.989,12.989,0,0,1-3.027,2.17.457.457,0,0,1-.208.054.4.4,0,0,1-.274-.119.177.177,0,0,1-.066-.142.18.18,0,0,1,.11-.176A10.968,10.968,0,0,0-155.807,704.837Zm-2.763-2.379a.256.256,0,0,1-.192-.054.241.241,0,0,1-.093-.164.191.191,0,0,1,.044-.176.243.243,0,0,1,.153-.088c.322-.022.567-.039.735-.055a.078.078,0,0,0,.088-.088v-3.377a.078.078,0,0,0-.088-.088h-.57a.207.207,0,0,1-.154-.066.216.216,0,0,1-.065-.158.214.214,0,0,1,.065-.158.208.208,0,0,1,.154-.067h4.8a.221.221,0,0,1,.165.067.211.211,0,0,1,.066.158.213.213,0,0,1-.066.158.22.22,0,0,1-.165.066h-.427a.078.078,0,0,0-.088.088v4.024a.266.266,0,0,1-.071.187.231.231,0,0,1-.176.076.248.248,0,0,1-.181-.076.253.253,0,0,1-.076-.187v-.35c0-.051-.026-.074-.077-.066Zm2.237.4a.465.465,0,0,1,.263-.088.464.464,0,0,1,.186.045.136.136,0,0,1,.088.115.145.145,0,0,1-.055.137,17.026,17.026,0,0,1-2.335,1.426.4.4,0,0,1-.187.054.389.389,0,0,1-.263-.109.164.164,0,0,1-.06-.16.152.152,0,0,1,.093-.125A13.405,13.405,0,0,0-156.333,702.853Zm1.623-4.4c0-.058-.026-.088-.077-.088h-2.478c-.051,0-.077.03-.077.088v.668c0,.059.026.088.077.088h2.478c.051,0,.077-.029.077-.088Zm-2.555,1.184a.068.068,0,0,0-.077.078v.668c0,.059.026.088.077.088h2.478c.051,0,.077-.029.077-.088v-.668a.068.068,0,0,0-.077-.078Zm0,1.25a.068.068,0,0,0-.077.078v.822c0,.059.026.084.077.076q1.392-.108,2.478-.218a.081.081,0,0,0,.077-.088v-.592a.068.068,0,0,0-.077-.078Zm7.236,2.412a.392.392,0,0,1,.241-.1.349.349,0,0,1,.2.067.176.176,0,0,1,.088.14.157.157,0,0,1-.066.155,17.148,17.148,0,0,1-2.171,1.468c-.051.03-.055.063-.011.1a6.437,6.437,0,0,0,2.665,1.688.2.2,0,0,1,.12.132.211.211,0,0,1,.011.065.166.166,0,0,1-.055.121.372.372,0,0,1-.3.176.393.393,0,0,1-.154-.034,7.111,7.111,0,0,1-2.308-1.457,7.041,7.041,0,0,1-1.6-2.226.074.074,0,0,0-.11-.045l-.065.023a.123.123,0,0,0-.066.12v3.531a.261.261,0,0,1-.082.191.263.263,0,0,1-.192.082.263.263,0,0,1-.192-.082.261.261,0,0,1-.082-.191v-3.322a.062.062,0,0,0-.022-.043.047.047,0,0,0-.055-.012q-.613.231-1.305.449a.349.349,0,0,1-.12.022.349.349,0,0,1-.3-.174.184.184,0,0,1-.033-.112.18.18,0,0,1,.011-.064.161.161,0,0,1,.12-.109,17.858,17.858,0,0,0,3.783-1.416.488.488,0,0,1,.23-.065.477.477,0,0,1,.219.055.135.135,0,0,1,.077.125.14.14,0,0,1-.077.127c-.321.183-.741.39-1.26.625a.073.073,0,0,0-.044.109,6.135,6.135,0,0,0,.778,1.262.082.082,0,0,0,.121.021A15.565,15.565,0,0,0-150.029,703.3Zm-3.3-4.3a.208.208,0,0,1-.164-.072.24.24,0,0,1-.066-.17.223.223,0,0,1,.066-.164.225.225,0,0,1,.164-.067h3.585a.033.033,0,0,0,.022-.009.243.243,0,0,1,.176.021l.087.043a.183.183,0,0,1,.1.112.2.2,0,0,1-.005.152,5.808,5.808,0,0,1-1.3,1.875.057.057,0,0,0,.011.1,14.883,14.883,0,0,1,1.634,1.129.24.24,0,0,1,.1.2.239.239,0,0,1-.077.175.278.278,0,0,1-.2.088.294.294,0,0,1-.2-.078,16.752,16.752,0,0,0-1.644-1.162.1.1,0,0,0-.132.012,7.938,7.938,0,0,1-2.171,1.238.376.376,0,0,1-.131.022.343.343,0,0,1-.264-.143.176.176,0,0,1-.027-.164.149.149,0,0,1,.1-.109,7.36,7.36,0,0,0,2.04-1.118c.044-.029.04-.058-.011-.088q-.658-.395-1.4-.767a.142.142,0,0,1-.087-.121.177.177,0,0,1,.054-.155.347.347,0,0,1,.23-.1.4.4,0,0,1,.165.033q.756.372,1.436.768a.1.1,0,0,0,.132-.012,5.638,5.638,0,0,0,1.1-1.4.037.037,0,0,0,0-.043.05.05,0,0,0-.039-.022Z"/><path d="M-142.957,704.64a.613.613,0,0,1-.46-.191.628.628,0,0,1-.187-.456v-3.65a.025.025,0,0,0-.022-.027.036.036,0,0,0-.033,0,11.165,11.165,0,0,1-.965,1.031.353.353,0,0,1-.224.076.4.4,0,0,1-.236-.076.248.248,0,0,1-.087-.2.222.222,0,0,1,.076-.176,9.249,9.249,0,0,0,1.42-1.512,10.375,10.375,0,0,0,1.124-1.865.263.263,0,0,1,.154-.152.264.264,0,0,1,.131-.034.5.5,0,0,1,.1.01.253.253,0,0,1,.147.133.2.2,0,0,1,0,.2,12.887,12.887,0,0,1-.636,1.184.037.037,0,0,0-.005.049.043.043,0,0,0,.038.027h2.555a.133.133,0,0,0,.12-.076,12.145,12.145,0,0,0,.659-1.262.3.3,0,0,1,.158-.164.345.345,0,0,1,.236-.022.232.232,0,0,1,.153.143.255.255,0,0,1-.01.219c-.256.469-.461.83-.615,1.086a.049.049,0,0,0,.006.049.045.045,0,0,0,.038.027h3.509a.247.247,0,0,1,.17.066.223.223,0,0,1,.071.17.238.238,0,0,1-.071.176.233.233,0,0,1-.17.07h-3.574c-.059,0-.088.028-.088.078v1.053c0,.051.029.076.088.076h2.872a.221.221,0,0,1,.165.067.222.222,0,0,1,.065.164.226.226,0,0,1-.065.164.228.228,0,0,1-.165.066h-2.872a.078.078,0,0,0-.088.088v1.084a.078.078,0,0,0,.088.088h2.916a.22.22,0,0,1,.164.066.221.221,0,0,1,.066.165.236.236,0,0,1-.066.169.209.209,0,0,1-.164.073h-2.916c-.059,0-.088.025-.088.076v1.1a.077.077,0,0,0,.088.087h3.87a.235.235,0,0,1,.176.067.231.231,0,0,1,.065.17.255.255,0,0,1-.065.176.233.233,0,0,1-.176.07Zm-1.48,2.73a.335.335,0,0,1-.241.11.424.424,0,0,1-.181-.043.157.157,0,0,1-.093-.155.172.172,0,0,1,.055-.121,4.868,4.868,0,0,0,1.085-1.709.323.323,0,0,1,.143-.154.273.273,0,0,1,.2-.033.237.237,0,0,1,.154.121.24.24,0,0,1,.01.186A5.441,5.441,0,0,1-144.437,707.37Zm4.43-7.795a.069.069,0,0,0-.077-.078H-143a.055.055,0,0,0-.049.028.117.117,0,0,0-.016.06v1.043a.067.067,0,0,0,.076.076h2.906a.068.068,0,0,0,.077-.076Zm-.077,2.85c.051,0,.077-.029.077-.088v-1.084c0-.058-.026-.088-.077-.088h-2.906c-.051,0-.076.03-.076.088v1.084c0,.059.025.088.076.088Zm0,1.732c.051,0,.077-.029.077-.087v-1.1a.068.068,0,0,0-.077-.076h-2.906a.067.067,0,0,0-.076.076v1.1c0,.058.025.087.076.087Zm-1.656,1.469a.241.241,0,0,1,.044-.131.216.216,0,0,1,.154-.088.266.266,0,0,1,.191.055.291.291,0,0,1,.1.164,13.6,13.6,0,0,1,.208,1.481.249.249,0,0,1-.06.193.323.323,0,0,1-.181.1.242.242,0,0,1-.187-.055.249.249,0,0,1-.087-.164Zm2.368.033a.368.368,0,0,1-.01-.087.266.266,0,0,1,.022-.1.165.165,0,0,1,.131-.1.357.357,0,0,1,.219.028.367.367,0,0,1,.154.148,10.263,10.263,0,0,1,.57,1.525.254.254,0,0,1-.038.2.288.288,0,0,1-.165.113.234.234,0,0,1-.2-.031.3.3,0,0,1-.126-.17A10.363,10.363,0,0,0-139.372,705.659Zm2.391-.13a.153.153,0,0,1-.044-.11v-.054a.2.2,0,0,1,.121-.122.373.373,0,0,1,.142-.033.357.357,0,0,1,.274.143,14.057,14.057,0,0,1,1.261,1.744.269.269,0,0,1,.033.119.379.379,0,0,1-.011.088.231.231,0,0,1-.142.143.29.29,0,0,1-.11.023.515.515,0,0,1-.11-.012.352.352,0,0,1-.175-.154A13.8,13.8,0,0,0-136.981,705.529Z"/></g></svg>