<svg xmlns="http://www.w3.org/2000/svg" width="72.694" height="17.294" viewBox="0 0 72.694 17.294"><g transform="translate(135.199 -553.676)"><path d="M-62.5,570.97H-135.2V553.676H-62.5l-2.345,3.517,2.345,4.1-2.345,4.69Z" fill="#90e0d8" opacity="0.83"/><path d="M-109.377,563.816a.215.215,0,0,1,.071.164.233.233,0,0,1-.071.17.231.231,0,0,1-.17.071h-5.932a.147.147,0,0,0-.132.066,15.6,15.6,0,0,1-.965,1.414.036.036,0,0,0-.01.044.034.034,0,0,0,.032.023q1.491-.035,4.934-.143a.027.027,0,0,0,.028-.022.035.035,0,0,0-.006-.033q-.646-.483-1.162-.811a.138.138,0,0,1-.077-.127.164.164,0,0,1,.077-.137.367.367,0,0,1,.208-.065.37.37,0,0,1,.209.065,12.382,12.382,0,0,1,2.3,1.744.208.208,0,0,1,.066.175.229.229,0,0,1-.1.164.373.373,0,0,1-.186.056.318.318,0,0,1-.22-.11c-.124-.124-.27-.26-.438-.406a.215.215,0,0,0-.143-.054q-5.822.207-7.247.252a.283.283,0,0,1-.192-.072.263.263,0,0,1-.093-.18.209.209,0,0,1,.06-.176.271.271,0,0,1,.17-.088l1.053-.021a.147.147,0,0,0,.131-.067,12.613,12.613,0,0,0,.91-1.425.043.043,0,0,0,0-.044.045.045,0,0,0-.044-.022h-2.664a.231.231,0,0,1-.17-.071.233.233,0,0,1-.071-.17.215.215,0,0,1,.071-.164.242.242,0,0,1,.17-.066h9.43A.242.242,0,0,1-109.377,563.816Zm-8.931-4.99a.078.078,0,0,0-.088.088v1.546a.246.246,0,0,1-.071.182.241.241,0,0,1-.176.071.257.257,0,0,1-.18-.071.237.237,0,0,1-.077-.182v-1.447a.625.625,0,0,1,.191-.455.623.623,0,0,1,.456-.192h3.607a.068.068,0,0,0,.077-.077v-.833c0-.058-.026-.088-.077-.088h-3.487a.229.229,0,0,1-.159-.065.217.217,0,0,1-.071-.165.216.216,0,0,1,.071-.164.23.23,0,0,1,.159-.066h7.741a.228.228,0,0,1,.159.066.213.213,0,0,1,.071.164.214.214,0,0,1-.071.165.227.227,0,0,1-.159.065h-3.563a.078.078,0,0,0-.088.088v.833c0,.052.029.077.088.077h3.695a.621.621,0,0,1,.455.192.622.622,0,0,1,.192.455v1.436a.254.254,0,0,1-.077.187.254.254,0,0,1-.186.077.254.254,0,0,1-.187-.077.254.254,0,0,1-.077-.187v-1.535a.078.078,0,0,0-.087-.088h-3.728a.078.078,0,0,0-.088.088v2.511a.252.252,0,0,1-.077.187.254.254,0,0,1-.186.077.254.254,0,0,1-.186-.077.256.256,0,0,1-.077-.187v-2.511c0-.058-.026-.088-.077-.088Zm.57,2.588a.211.211,0,0,1-.154-.065.22.22,0,0,1-.065-.159.2.2,0,0,1,.065-.154.223.223,0,0,1,.154-.06h2.27a.219.219,0,0,1,.153.06.2.2,0,0,1,.066.154.217.217,0,0,1-.066.159.207.207,0,0,1-.153.065Zm.011,1.316a.225.225,0,0,1-.165-.066.218.218,0,0,1-.065-.159.24.24,0,0,1,.065-.164.215.215,0,0,1,.165-.071h6.864a.22.22,0,0,1,.159.071.229.229,0,0,1,.071.164.209.209,0,0,1-.071.159.23.23,0,0,1-.159.066Zm.06-2.686a.221.221,0,0,1-.06-.153.2.2,0,0,1,.06-.149.2.2,0,0,1,.148-.06h2.04a.221.221,0,0,1,.153.06.194.194,0,0,1,.066.149.21.21,0,0,1-.066.153.21.21,0,0,1-.153.066h-2.04A.2.2,0,0,1-117.667,560.044Zm4.386,0a.221.221,0,0,1-.06-.153.2.2,0,0,1,.06-.149.2.2,0,0,1,.148-.06h2.094a.2.2,0,0,1,.148.06.2.2,0,0,1,.061.149.222.222,0,0,1-.061.153.192.192,0,0,1-.148.066h-2.094A.193.193,0,0,1-113.281,560.044Zm2.56.932a.221.221,0,0,1,.154.06.2.2,0,0,1,.066.154.217.217,0,0,1-.066.159.209.209,0,0,1-.154.065h-2.4a.207.207,0,0,1-.153-.065.217.217,0,0,1-.066-.159.2.2,0,0,1,.066-.154.219.219,0,0,1,.153-.06Z"/><path d="M-96.774,560.615a.336.336,0,0,1,.214-.078.3.3,0,0,1,.2.078.2.2,0,0,1,.087.174.209.209,0,0,1-.087.176,23.286,23.286,0,0,1-2.193,1.5c-.052.029-.062.065-.033.109a6.38,6.38,0,0,0,2.807,2.534.172.172,0,0,1,.109.142.106.106,0,0,1,.011.044.222.222,0,0,1-.054.143.378.378,0,0,1-.286.153.441.441,0,0,1-.153-.033,6.313,6.313,0,0,1-2.5-2.176,11.286,11.286,0,0,1-1.568-3.481c0-.023-.009-.034-.027-.034a.065.065,0,0,0-.049.023,8.278,8.278,0,0,1-1.2.8c-.044.029-.044.062,0,.1a5.262,5.262,0,0,1,1.217,1.535,4.726,4.726,0,0,1,.548,1.656,4.416,4.416,0,0,1,.034.526,3.492,3.492,0,0,1-.11.889,1.506,1.506,0,0,1-.571.921,1.847,1.847,0,0,1-1.1.318c-.212,0-.453-.008-.723-.022a.282.282,0,0,1-.2-.082.456.456,0,0,1-.114-.2.186.186,0,0,1,.027-.159.133.133,0,0,1,.137-.059q.494.032.767.032a1.38,1.38,0,0,0,.823-.208,1.352,1.352,0,0,0,.493-.954,2.345,2.345,0,0,0,.044-.472,4.024,4.024,0,0,0-.164-1.085.034.034,0,0,0-.028-.038.05.05,0,0,0-.049.016,12.386,12.386,0,0,1-2.089,1.459,15.585,15.585,0,0,1-2.429,1.129.3.3,0,0,1-.208-.011.371.371,0,0,1-.175-.143.212.212,0,0,1-.033-.109.119.119,0,0,1,.022-.067.149.149,0,0,1,.12-.12,13.736,13.736,0,0,0,2.533-1.118,9.929,9.929,0,0,0,2.083-1.491.11.11,0,0,0,.022-.132,4.524,4.524,0,0,0-.416-.757.07.07,0,0,0-.11-.021,12.514,12.514,0,0,1-1.6,1,17.866,17.866,0,0,1-1.82.855.481.481,0,0,1-.131.023.318.318,0,0,1-.264-.165.177.177,0,0,1-.027-.164.181.181,0,0,1,.115-.121,13.452,13.452,0,0,0,1.869-.789,9.812,9.812,0,0,0,1.585-.976.076.076,0,0,0,.011-.121,4.577,4.577,0,0,0-.526-.526.129.129,0,0,0-.143-.022,17.308,17.308,0,0,1-2.5,1.03.732.732,0,0,1-.131.011.349.349,0,0,1-.285-.164.174.174,0,0,1-.022-.17.167.167,0,0,1,.12-.115,12.353,12.353,0,0,0,3.816-1.678.031.031,0,0,0,0-.032c0-.015-.009-.023-.016-.023h-2.489a.243.243,0,0,1-.181-.071.234.234,0,0,1-.071-.176.233.233,0,0,1,.071-.174.243.243,0,0,1,.181-.072h5.965a.245.245,0,0,1,.181.072.237.237,0,0,1,.071.174.238.238,0,0,1-.071.176.244.244,0,0,1-.181.071h-2.061a.056.056,0,0,0-.05.028.051.051,0,0,0-.006.05,10.829,10.829,0,0,0,.823,2.083.069.069,0,0,0,.109.021A19.475,19.475,0,0,0-96.774,560.615ZM-104.482,558a.077.077,0,0,0-.088.088v1.2a.254.254,0,0,1-.077.187.253.253,0,0,1-.186.076.256.256,0,0,1-.187-.076.253.253,0,0,1-.076-.187v-1.14a.622.622,0,0,1,.192-.455.625.625,0,0,1,.455-.192h3.541a.068.068,0,0,0,.077-.077v-.712a.263.263,0,0,1,.082-.192.27.27,0,0,1,.2-.082.269.269,0,0,1,.2.082.263.263,0,0,1,.082.192v.712a.068.068,0,0,0,.077.077h3.629a.625.625,0,0,1,.455.192.622.622,0,0,1,.192.455v1.13a.261.261,0,0,1-.082.191.263.263,0,0,1-.192.082.244.244,0,0,1-.186-.082.268.268,0,0,1-.077-.191v-1.185a.077.077,0,0,0-.088-.088Z"/><path d="M-88.146,562.259a.424.424,0,0,1,.066.219.43.43,0,0,1-.076.23.19.19,0,0,1-.159.072.182.182,0,0,1-.148-.093q-.407-.68-.987-1.525a.039.039,0,0,0-.033-.005c-.015,0-.022.009-.022.016v5.153a.254.254,0,0,1-.077.187.247.247,0,0,1-.181.077.245.245,0,0,1-.18-.077.25.25,0,0,1-.077-.187v-5.537a.018.018,0,0,0-.011-.016c-.008,0-.011,0-.011.006a13.747,13.747,0,0,1-1.459,3.4.157.157,0,0,1-.153.082.226.226,0,0,1-.164-.082.407.407,0,0,1-.088-.241.373.373,0,0,1,.076-.209,10.7,10.7,0,0,0,.976-1.924,15.291,15.291,0,0,0,.735-2.319c.014-.059,0-.088-.055-.088h-1.359a.266.266,0,0,1-.187-.072.232.232,0,0,1-.076-.18.257.257,0,0,1,.076-.187.256.256,0,0,1,.187-.076H-90.1a.068.068,0,0,0,.077-.077V556.7a.253.253,0,0,1,.077-.186.244.244,0,0,1,.18-.076.246.246,0,0,1,.181.076.257.257,0,0,1,.077.186V558.8c0,.051.029.077.088.077h1.107a.236.236,0,0,1,.181.076.269.269,0,0,1,.071.187.243.243,0,0,1-.071.18.243.243,0,0,1-.181.072h-1.107a.078.078,0,0,0-.088.088v.866a.213.213,0,0,0,.055.142Q-88.837,561.273-88.146,562.259Zm4.387-.9a.316.316,0,0,1,.142-.176.319.319,0,0,1,.154-.044.192.192,0,0,1,.066.012.232.232,0,0,1,.164.12.263.263,0,0,1,.022.209,8.472,8.472,0,0,1-1.338,2.532.1.1,0,0,0,.011.132,7.3,7.3,0,0,0,2.6,1.907.177.177,0,0,1,.12.143.125.125,0,0,1,.011.055.176.176,0,0,1-.055.131.4.4,0,0,1-.3.165.318.318,0,0,1-.164-.044,7.715,7.715,0,0,1-2.566-1.94.062.062,0,0,0-.11,0,8.2,8.2,0,0,1-2.828,1.984.292.292,0,0,1-.132.032.283.283,0,0,1-.241-.153.182.182,0,0,1-.044-.12.1.1,0,0,1,.011-.044.174.174,0,0,1,.1-.132,7.958,7.958,0,0,0,2.806-1.984.1.1,0,0,0,.012-.132,9.649,9.649,0,0,1-1.371-2.5.222.222,0,0,1,.011-.181.217.217,0,0,1,.142-.121.276.276,0,0,1,.192.017.235.235,0,0,1,.127.142,9,9,0,0,0,1.238,2.238c.03.044.059.04.088-.012A7.492,7.492,0,0,0-83.759,561.36Zm-2.731-1.995a.269.269,0,0,1,.148-.143.248.248,0,0,1,.2,0,.246.246,0,0,1,.148.143.223.223,0,0,1-.016.2A8.977,8.977,0,0,1-87.6,561.7a.269.269,0,0,1-.181.066.31.31,0,0,1-.192-.066.191.191,0,0,1-.082-.153.206.206,0,0,1,.06-.165A7.183,7.183,0,0,0-86.49,559.365Zm4.375-1.218a.255.255,0,0,1,.176.071.231.231,0,0,1,.076.176.244.244,0,0,1-.076.18.242.242,0,0,1-.176.078h-5.6a.232.232,0,0,1-.18-.078.252.252,0,0,1-.072-.18.238.238,0,0,1,.072-.176.244.244,0,0,1,.18-.071h2.434c.052,0,.077-.029.077-.087V556.7a.25.25,0,0,1,.082-.186.273.273,0,0,1,.192-.076.255.255,0,0,1,.187.076.257.257,0,0,1,.077.186v1.361c0,.058.025.087.076.087Zm-1.754,1.36a.2.2,0,0,1-.044-.159.173.173,0,0,1,.088-.138.382.382,0,0,1,.164-.043.287.287,0,0,1,.208.1,12.059,12.059,0,0,1,1.656,2.028.289.289,0,0,1,.033.131.213.213,0,0,1-.011.066.233.233,0,0,1-.121.165.262.262,0,0,1-.2.027.248.248,0,0,1-.159-.126A10.654,10.654,0,0,0-83.869,559.507Z"/></g></svg>