<svg xmlns="http://www.w3.org/2000/svg" width="72.694" height="17.294" viewBox="0 0 72.694 17.294"><g transform="translate(123.722 -542.394)"><path d="M-51.028,559.688h-72.694V542.394h72.694l-2.345,3.517,2.345,4.1-2.345,4.69Z" fill="#90e0d8" opacity="0.83"/><path d="M-110.852,545.706a.447.447,0,0,1,.394-.218.479.479,0,0,1,.406.208,15.546,15.546,0,0,0,2.106,2.237,16.687,16.687,0,0,0,2.488,1.852.215.215,0,0,1,.11.2.252.252,0,0,1-.066.165.359.359,0,0,1-.191.114.258.258,0,0,1-.214-.038,18.638,18.638,0,0,1-2.538-1.941,14.346,14.346,0,0,1-2.023-2.181.045.045,0,0,0-.044-.023.044.044,0,0,0-.044.023,12.982,12.982,0,0,1-1.9,2.192,17.693,17.693,0,0,1-2.571,2.039.277.277,0,0,1-.131.033h-.066a.273.273,0,0,1-.175-.109.231.231,0,0,1-.056-.153.214.214,0,0,1,.1-.187,15.78,15.78,0,0,0,2.528-1.984A12.611,12.611,0,0,0-110.852,545.706Zm3.531,5.505h.032a.243.243,0,0,1,.176,0l.11.032a.2.2,0,0,1,.12.111.186.186,0,0,1,0,.153q-.888,1.974-1.908,3.947a.347.347,0,0,1-.175.164.442.442,0,0,1-.143.023.326.326,0,0,1-.087-.012.183.183,0,0,1-.148-.126.23.23,0,0,1,.005-.191q.735-1.382,1.733-3.509a.051.051,0,0,0-.006-.05.057.057,0,0,0-.049-.027h-6.327a.251.251,0,0,1-.175-.071.237.237,0,0,1-.077-.181.258.258,0,0,1,.077-.187.244.244,0,0,1,.175-.076Zm-5.455-1.688a.266.266,0,0,1-.072-.187.243.243,0,0,1,.072-.181.247.247,0,0,1,.181-.072h4.473a.249.249,0,0,1,.181.072.246.246,0,0,1,.071.181.269.269,0,0,1-.071.187.237.237,0,0,1-.181.076H-112.6A.236.236,0,0,1-112.776,549.523Z"/><path d="M-100.118,546.7a.622.622,0,0,1,.192-.455.62.62,0,0,1,.455-.191h5.745a.62.62,0,0,1,.455.191.622.622,0,0,1,.192.455v8.224a.278.278,0,0,1-.082.2.269.269,0,0,1-.2.082.27.27,0,0,1-.2-.082.278.278,0,0,1-.082-.2v-.3a.068.068,0,0,0-.077-.077H-99.5a.068.068,0,0,0-.077.077v.384a.251.251,0,0,1-.077.186.259.259,0,0,1-.192.077.264.264,0,0,1-.192-.077.258.258,0,0,1-.076-.186Zm6.48-.021c0-.059-.026-.088-.077-.088H-99.5c-.051,0-.077.029-.077.088v3.245a.068.068,0,0,0,.077.077h5.789a.068.068,0,0,0,.077-.077Zm-5.943,7.258c0,.058.026.088.077.088h5.789c.051,0,.077-.03.077-.088v-3.333a.068.068,0,0,0-.077-.076H-99.5a.068.068,0,0,0-.077.076Z"/><path d="M-84.384,547.352a.226.226,0,0,1,.175.071.24.24,0,0,1,.066.17.244.244,0,0,1-.066.17.23.23,0,0,1-.175.071h-3.421a.233.233,0,0,1-.17-.071.232.232,0,0,1-.071-.17.229.229,0,0,1,.071-.17.229.229,0,0,1,.17-.071Zm-2.928,1.962a.244.244,0,0,1-.17-.066.216.216,0,0,1-.071-.165.236.236,0,0,1,.071-.17.236.236,0,0,1,.17-.071h2.643a.232.232,0,0,1,.169.071.233.233,0,0,1,.072.17.213.213,0,0,1-.072.165.24.24,0,0,1-.169.066Zm-.011,1.469a.222.222,0,0,1-.164-.066.216.216,0,0,1-.066-.158.236.236,0,0,1,.066-.165.215.215,0,0,1,.164-.071h2.665a.216.216,0,0,1,.164.071.235.235,0,0,1,.066.165.216.216,0,0,1-.066.158.223.223,0,0,1-.164.066Zm2.248,1.031a.631.631,0,0,1,.455.186.618.618,0,0,1,.192.461v1.886a.614.614,0,0,1-.192.46.627.627,0,0,1-.455.186H-87a.059.059,0,0,0-.066.067v.241a.246.246,0,0,1-.071.181.233.233,0,0,1-.17.071.236.236,0,0,1-.17-.071.25.25,0,0,1-.071-.181v-2.84a.618.618,0,0,1,.192-.461.631.631,0,0,1,.455-.186Zm.373-5.9a.23.23,0,0,1,.159.066.215.215,0,0,1,.071.164.217.217,0,0,1-.071.165.229.229,0,0,1-.159.065h-2.566a.227.227,0,0,1-.159-.065.214.214,0,0,1-.071-.165.212.212,0,0,1,.071-.164.229.229,0,0,1,.159-.066Zm-.209,6.448q0-.078-.087-.078h-1.985c-.059,0-.088.026-.088.078v2.072c0,.051.029.076.088.076H-85c.058,0,.087-.025.087-.076Zm6.853-.965a.241.241,0,0,1,.077.175.239.239,0,0,1-.077.175.24.24,0,0,1-.175.076h-2.029a.048.048,0,0,0-.038.023.04.04,0,0,0-.006.044,8.59,8.59,0,0,0,1.058,1.414,7.548,7.548,0,0,0,1.267,1.13.208.208,0,0,1,.1.185.208.208,0,0,1-.077.165.329.329,0,0,1-.192.11.26.26,0,0,1-.214-.055,9.373,9.373,0,0,1-1.222-1.2,10.664,10.664,0,0,1-1.069-1.464c-.008-.015-.017-.02-.028-.017s-.016.013-.016.028v3.2a.252.252,0,0,1-.077.186.251.251,0,0,1-.186.078.251.251,0,0,1-.187-.078.252.252,0,0,1-.077-.186v-3.147c0-.014-.005-.021-.016-.021a.037.037,0,0,0-.028.011,8.785,8.785,0,0,1-1.1,1.529,7.125,7.125,0,0,1-1.326,1.189.3.3,0,0,1-.214.05.3.3,0,0,1-.192-.1.211.211,0,0,1-.066-.154.187.187,0,0,1,.022-.087.357.357,0,0,1,.088-.1,6.219,6.219,0,0,0,1.354-1.141,7.5,7.5,0,0,0,1.091-1.523.031.031,0,0,0,0-.044.057.057,0,0,0-.049-.023h-2.1a.222.222,0,0,1-.169-.076.246.246,0,0,1-.072-.175.248.248,0,0,1,.072-.175.22.22,0,0,1,.169-.077h2.435q.087,0,.087-.078v-.931a.077.077,0,0,0-.087-.088H-82.86a.625.625,0,0,1-.461-.187.624.624,0,0,1-.186-.46v-2.95a.63.63,0,0,1,.186-.454.618.618,0,0,1,.461-.192H-79a.621.621,0,0,1,.455.192.62.62,0,0,1,.192.454v2.95a.614.614,0,0,1-.192.46.628.628,0,0,1-.455.187h-1.623c-.051,0-.076.029-.076.088v.931a.068.068,0,0,0,.076.078h2.391A.237.237,0,0,1-78.058,551.4Zm-4.879-4.946c-.051,0-.077.03-.077.088v1.25a.068.068,0,0,0,.077.076H-81.3c.058,0,.088-.025.088-.076v-1.25a.078.078,0,0,0-.088-.088Zm0,1.875c-.051,0-.077.03-.077.088v1.261a.068.068,0,0,0,.077.076H-81.3c.058,0,.088-.025.088-.076v-1.261a.078.078,0,0,0-.088-.088Zm3.98-.461c.059,0,.088-.025.088-.076v-1.25a.078.078,0,0,0-.088-.088h-1.677c-.052,0-.077.03-.077.088v1.25a.067.067,0,0,0,.077.076Zm0,1.886c.059,0,.088-.025.088-.076v-1.261a.078.078,0,0,0-.088-.088h-1.677c-.052,0-.077.03-.077.088v1.261a.067.067,0,0,0,.077.076Z"/><path d="M-70.328,551.452a.3.3,0,0,1,.082.2.288.288,0,0,1-.071.213.19.19,0,0,1-.17.083.217.217,0,0,1-.17-.093q-.407-.538-1.009-1.206a.055.055,0,0,0-.038-.006.026.026,0,0,0-.017.027v4.693a.255.255,0,0,1-.076.187.257.257,0,0,1-.187.076.253.253,0,0,1-.186-.076.256.256,0,0,1-.077-.187v-5.175c0-.007,0-.011-.016-.011s-.017,0-.017.011a12.707,12.707,0,0,1-1.678,3.059.166.166,0,0,1-.153.072.185.185,0,0,1-.153-.093.37.37,0,0,1-.077-.209.348.348,0,0,1,.088-.219,9.671,9.671,0,0,0,1.047-1.617,13.484,13.484,0,0,0,.85-1.946.058.058,0,0,0-.006-.055.057.057,0,0,0-.049-.023h-1.547a.251.251,0,0,1-.186-.077.247.247,0,0,1-.077-.18.247.247,0,0,1,.077-.181.255.255,0,0,1,.186-.077h1.624a.077.077,0,0,0,.087-.087v-1.8c0-.051-.029-.073-.087-.065q-.714.141-1.514.274H-73.9a.256.256,0,0,1-.242-.186.176.176,0,0,1,.006-.155.151.151,0,0,1,.126-.087,18.61,18.61,0,0,0,3.114-.757.516.516,0,0,1,.175-.033.4.4,0,0,1,.285.132.2.2,0,0,1,.044.181.174.174,0,0,1-.109.137c-.33.117-.709.23-1.141.34-.051.007-.077.04-.077.1v1.919c0,.058.026.087.077.087h1.195a.256.256,0,0,1,.187.077.246.246,0,0,1,.076.181.246.246,0,0,1-.076.18.252.252,0,0,1-.187.077h-1.195a.069.069,0,0,0-.077.078v.723a.192.192,0,0,0,.055.143Q-71.051,550.685-70.328,551.452Zm3.377,3.289c0,.059.026.088.077.088h2.543a.246.246,0,0,1,.182.072.237.237,0,0,1,.071.174.241.241,0,0,1-.071.176.246.246,0,0,1-.182.072H-70.35a.245.245,0,0,1-.181-.072.237.237,0,0,1-.071-.176.233.233,0,0,1,.071-.174.245.245,0,0,1,.181-.072h2.774a.078.078,0,0,0,.088-.088v-1.579a.078.078,0,0,0-.088-.088h-2a.232.232,0,0,1-.171-.071.231.231,0,0,1-.071-.17.236.236,0,0,1,.071-.17.237.237,0,0,1,.171-.071h2c.058,0,.088-.025.088-.076v-1.447c0-.052-.03-.078-.088-.078h-2.248a.24.24,0,0,1-.18-.071.235.235,0,0,1-.072-.176A.234.234,0,0,1-70,550.57a.241.241,0,0,1,.18-.072h5.252a.23.23,0,0,1,.17.072.237.237,0,0,1,.071.174.238.238,0,0,1-.071.176.229.229,0,0,1-.17.071h-2.3a.069.069,0,0,0-.077.078v1.447a.068.068,0,0,0,.077.076H-64.8a.234.234,0,0,1,.17.071.232.232,0,0,1,.071.17.227.227,0,0,1-.071.17.23.23,0,0,1-.17.071h-2.072c-.051,0-.077.03-.077.088Zm1.546-8.75a.623.623,0,0,1,.455.193.621.621,0,0,1,.192.455v2.05a.618.618,0,0,1-.192.461.633.633,0,0,1-.455.186h-3.563a.629.629,0,0,1-.455-.186.618.618,0,0,1-.192-.461v-2.05a.621.621,0,0,1,.192-.455.62.62,0,0,1,.455-.193Zm.044,2.851a.068.068,0,0,0,.077-.076v-2.2c0-.059-.026-.088-.077-.088h-3.662a.078.078,0,0,0-.088.088v2.2c0,.051.029.076.088.076Z"/></g></svg>