<svg xmlns="http://www.w3.org/2000/svg" width="71.2" height="24.4" viewBox="0 0 71.2 24.4"><g transform="translate(-385.9 -284.4)"><path d="M446.2,307.6H397.4a10.926,10.926,0,0,1-10.9-10.9v-.1a10.926,10.926,0,0,1,10.9-10.9h48.8a10.926,10.926,0,0,1,10.9,10.9v.1A10.926,10.926,0,0,1,446.2,307.6Z" fill="#3bb8b1" opacity="0.83"/><circle cx="10.7" cy="10.7" r="10.7" transform="translate(387.4 285.9)" fill="#fff" stroke="#e4c34f" stroke-miterlimit="10" stroke-width="3"/><path d="M396.2,290.8v5.8a1.5,1.5,0,0,0,3,0v-5.8a1.5,1.5,0,0,0-3,0Z" fill="#6da5a3"/><path d="M399.1,298.4h3.6a1.5,1.5,0,0,0,0-3h-3.6a1.5,1.5,0,0,0,0,3Z" fill="#6da5a3"/><circle cx="1.6" cy="1.6" r="1.6" transform="translate(396.1 295.3)" fill="#213749"/><path d="M419.5,295.4h3.9v.7h-3.9v4.6h4.8v.7h-9.7v-.7h4v-8.5a3.445,3.445,0,0,0,.9.1c.1,0,.2,0,.2.1a.1.1,0,0,1-.1.1.764.764,0,0,0-.2.5v2.4Z" fill="#fff"/><path d="M429.4,294.1c-.2,0-.5-.1-.8-.1h-2.2a2.483,2.483,0,0,0-.9.1v-.7a3.444,3.444,0,0,1,.9.1,4.052,4.052,0,0,0,1.1,0h1.1a1.719,1.719,0,0,0,.8-.1Zm-.2,1.4h-3.3v-.6h3.4v.6Zm-.1,1.5h-3.2v-.6h3.2Zm2.8-.6h-2.1a1.087,1.087,0,0,1,.1-.5v-3.2c0-.2,0-.3-.1-.4h5.1v4.2h-2.1v1.1h2.8v.7c-.3,0-.6-.1-1-.1h-1.2l.6.9c.2.2.3.5.5.7l.6.6a4.231,4.231,0,0,0,.7.5c-.1.1-.2.2-.3.2l-.3.3a4.62,4.62,0,0,1-.7-.7,5.547,5.547,0,0,1-.6-.8c-.2-.3-.3-.5-.5-.8a3.553,3.553,0,0,1-.4-.9h-.2v3.7H432V298h-.1c-.1.3-.3.6-.4.9a3.508,3.508,0,0,1-.5.8c-.2.3-.4.5-.6.8a6.033,6.033,0,0,1-.8.8c-.1-.1-.1-.2-.2-.3s-.2-.1-.3-.2v.5h-.7v-.8h-1.7v1H426v-3.8h2.4a1.268,1.268,0,0,0,.6-.1v3a4.236,4.236,0,0,0,.7-.5l.6-.6a3.038,3.038,0,0,0,.5-.7c.2-.3.3-.6.5-.9h-1.8v-.7c.3,0,.6.1,1,.1h1.4v-.9Zm-4.5-3.1c-.1-.2-.2-.3-.2-.4s-.1-.2-.2-.3-.1-.2-.2-.3-.1-.2-.2-.3l.4-.4.3.3c.1.1.1.2.2.3s.1.2.2.3.2.3.3.4Zm.9,5.1h-1.7v1.7h1.7Zm3.6-5.3h-1.4v1.2h1.4Zm0,1.7h-1.4v1.1h1.4Zm.6-.5H434v-1.2h-1.5Zm0,1.6H434v-1.1h-1.5Z" fill="#fff"/><path d="M442,299.9v1.2a2.768,2.768,0,0,0,.1.9h-.9c0-.3.1-.6.1-.9v-2.9h-3v1h-.8a1.7,1.7,0,0,1,.1-.7c.1-.2,0-.5,0-.7v-3.4a.749.749,0,0,0-.1-.5c.3,0,.7.1,1.4.1h2.4v-1.6a1.483,1.483,0,0,0-.1-.7c.2,0,.3.1.5.1h.4c.1,0,.2,0,.2.1s0,.1-.2.2l-.1.1V294h2.4a4.512,4.512,0,0,0,1.3-.1v5.2h-.8v-.9H442Zm-.8-5.3h-3v3.1h3Zm.8,3h2.9v-3.1H442Z" fill="#fff"/></g></svg>