<svg xmlns="http://www.w3.org/2000/svg" width="89.496" height="29.019" viewBox="0 0 89.496 29.019"><g transform="translate(-464.261 -128.094)"><path d="M497.779,139.868l-.983.155c-.28.044-.538.089-.774.133l-.088-.7c.236-.008.5-.024.8-.05s.646-.065,1.044-.116v-1.546q0-.288-.006-.492c0-.136-.009-.25-.016-.342s-.017-.173-.028-.243-.024-.135-.039-.194a3.71,3.71,0,0,0,.829.034c.11-.015.175,0,.193.049s-.02.1-.116.149a.336.336,0,0,0-.121.183.985.985,0,0,0-.034.27V139.2q.609-.089,1.078-.177c.313-.059.583-.118.812-.177l.087.7q-.75.066-1.977.232V143.8c.206-.17.4-.328.569-.476s.343-.292.509-.436.333-.293.5-.447.35-.327.541-.519a1.673,1.673,0,0,0,.127.359,1.119,1.119,0,0,0,.205.271l-2.11,1.723a4.212,4.212,0,0,0-.442.392,3.454,3.454,0,0,0-.309.359,2.953,2.953,0,0,0-.287-.271,3.842,3.842,0,0,0-.365-.26,1.907,1.907,0,0,0,.4-1.314Zm4.33-1.866q-.377,0-.63.005c-.169,0-.318.009-.447.017s-.245.016-.348.028-.21.023-.321.038v-.74q.21.022.453.033c.162.007.345.013.547.017l.7.011c.261,0,.558.005.889.005s.639,0,.9-.005l.7-.011c.2,0,.383-.01.541-.017s.308-.018.448-.033l-.1,6.671a4.41,4.41,0,0,1-.088.867,1.018,1.018,0,0,1-.3.542,1.576,1.576,0,0,1-.641.32,9.212,9.212,0,0,1-1.109.216,1.293,1.293,0,0,0-.028-.431,1.7,1.7,0,0,0-.238-.486,5.13,5.13,0,0,0,.89.061,1.022,1.022,0,0,0,.53-.15.653.653,0,0,0,.259-.408,3.2,3.2,0,0,0,.066-.729l.078-5.821h-2.077q.012.486,0,.983t-.033.95a19.394,19.394,0,0,1-.226,2.253,6.505,6.505,0,0,1-.492,1.651,4.919,4.919,0,0,1-.867,1.287,9.328,9.328,0,0,1-1.342,1.16,1.186,1.186,0,0,0-.237-.3,2.362,2.362,0,0,0-.381-.254,7.062,7.062,0,0,0,1.176-.818,4.2,4.2,0,0,0,.823-.972,5.033,5.033,0,0,0,.53-1.221,9.3,9.3,0,0,0,.3-1.562c.022-.17.039-.352.05-.547s.02-.416.028-.663.012-.528.016-.845S502.116,138.422,502.109,138Z" fill="#fff"/><path d="M516.092,142.6c.177-.014.331-.025.464-.033a3.267,3.267,0,0,0,.331-.032v.695c-.125-.022-.25-.04-.375-.055s-.3-.026-.508-.033-.49-.013-.829-.017-.784-.005-1.336-.005a7.538,7.538,0,0,0,.619.883,4.659,4.659,0,0,0,.662.663,4.331,4.331,0,0,0,.779.5,6.73,6.73,0,0,0,.977.392,1.651,1.651,0,0,0-.326.3,1.8,1.8,0,0,0-.226.414,11.327,11.327,0,0,1-.955-.619,6.1,6.1,0,0,1-.763-.651,5.092,5.092,0,0,1-.6-.741,7.24,7.24,0,0,1-.5-.883,4.2,4.2,0,0,1-.392.883,3.5,3.5,0,0,1-.618.757,5.169,5.169,0,0,1-.934.685,11.769,11.769,0,0,1-1.325.657,2.021,2.021,0,0,0-.243-.342,1.556,1.556,0,0,0-.42-.321q.751-.243,1.315-.485a5.015,5.015,0,0,0,.966-.537,2.946,2.946,0,0,0,.674-.667,3.174,3.174,0,0,0,.436-.9q-.828,0-1.336.005c-.339,0-.611.01-.818.017s-.37.019-.491.033-.245.033-.37.055v-.695a3.085,3.085,0,0,0,.364.032c.162.008.354.019.575.033v-2.275c0-.169,0-.338-.006-.508s-.009-.32-.016-.453c-.037.052-.069.094-.094.128s-.057.071-.094.115a1.506,1.506,0,0,0-.287-.265,1.243,1.243,0,0,0-.3-.132v.066a4.2,4.2,0,0,0-.5-.061c-.173-.011-.378-.016-.613-.016v1.943q.254-.12.514-.27t.557-.337a1.172,1.172,0,0,0,.006.342,1.846,1.846,0,0,0,.083.31q-.574.243-1.16.552v3.325a2.929,2.929,0,0,1-.05.6.627.627,0,0,1-.221.37,1.089,1.089,0,0,1-.5.194,6.557,6.557,0,0,1-.895.066,1.269,1.269,0,0,0-.072-.409,1.777,1.777,0,0,0-.26-.408,4.261,4.261,0,0,0,.735.088.775.775,0,0,0,.4-.083.38.38,0,0,0,.172-.249,1.938,1.938,0,0,0,.038-.419v-2.739q-.354.188-.679.364t-.6.353a1.705,1.705,0,0,0-.144-.342c-.051-.088-.129-.206-.232-.353q.508-.177.906-.332t.751-.309v-2.265c-.331,0-.617.008-.856.023s-.454.036-.646.066v-.718c.192.029.407.052.646.066s.525.022.856.022q-.01-.927-.05-1.474a6.449,6.449,0,0,0-.093-.8,2.844,2.844,0,0,0,.453.066,2.591,2.591,0,0,0,.353,0c.191-.007.3.013.315.061s-.032.12-.149.215a.523.523,0,0,0-.177.431v1.5c.235-.007.44-.016.613-.027a4.417,4.417,0,0,0,.5-.061v.607a5.812,5.812,0,0,0,.735-.624,5.928,5.928,0,0,0,.629-.739,5.6,5.6,0,0,0,.481-.8,4.132,4.132,0,0,0,.3-.779,3.258,3.258,0,0,0,.354.232,1.482,1.482,0,0,0,.387.166c.1.022.15.063.143.121s-.055.1-.143.133a.763.763,0,0,0-.26.194,3.809,3.809,0,0,0-.4.513q.763,0,1.3-.006c.36,0,.668-.009.922-.016s.466-.017.635-.028.317-.023.442-.039l-1.3,1.757c.442,0,.8-.006,1.088-.017s.528-.024.734-.038c-.014.125-.026.293-.033.5s-.011.418-.011.624Zm-4.164-4.462q-.177.243-.381.492c-.136.165-.3.359-.5.58.258.014.587.026.989.033s.922.011,1.563.011l.862-1.116Zm1.171,4.5a3.125,3.125,0,0,0,.066-.558c.007-.2,0-.458-.011-.768a3.925,3.925,0,0,0,.762.144.109.109,0,0,1,.111.094.157.157,0,0,1-.045.138.517.517,0,0,0-.088.116,1,1,0,0,0-.066.16,2.351,2.351,0,0,0-.066.26c-.023.107-.049.244-.078.414h1.834v-2.9h-4.054v1.867a4.679,4.679,0,0,0,.817-.851,2.75,2.75,0,0,0,.465-.928,1.806,1.806,0,0,0,.529.287c.059.03.093.061.1.094s-.03.068-.11.1a.44.44,0,0,0-.177.138q-.089.105-.276.359c-.14.192-.292.389-.453.591s-.306.381-.431.536a.862.862,0,0,0-.464-.287v.994Zm1.778-.851a9.215,9.215,0,0,0-.491-.8q-.282-.408-.6-.795l.375-.3q.321.377.63.79t.574.8Z" fill="#fff"/><path d="M523.371,143.359q.851,0,1.441-.006c.395,0,.742-.009,1.044-.016s.575-.019.818-.034.5-.033.773-.055v.674c-.273-.022-.532-.04-.779-.055s-.519-.026-.817-.033-.644-.013-1.039-.017-.874-.005-1.441-.005v1.6a1.691,1.691,0,0,1-.06.492.516.516,0,0,1-.244.3,1.391,1.391,0,0,1-.535.143,7.38,7.38,0,0,1-.928.028,1.463,1.463,0,0,0-.332-.751c.332.044.593.074.785.088a1.388,1.388,0,0,0,.43-.016.24.24,0,0,0,.182-.155,1.018,1.018,0,0,0,.039-.315v-1.413h-1.22q-.525,0-.933.005l-.724.011q-.315.006-.585.022l-.531.034c-.173.01-.355.023-.547.038v-.674c.295.022.564.041.807.055s.523.026.839.034.7.012,1.155.016,1.032.006,1.739.006V142.9l1.746-.806H521.14c-.17,0-.324,0-.464,0s-.275.009-.4.017-.278.018-.447.033l.01-.564c.177.015.352.024.525.028s.37.008.591.011.477.006.768.006h2.1q.437,0,.763-.006t.585-.011c.173,0,.348-.013.524-.028v.586a2.7,2.7,0,0,0-.337.072,2.186,2.186,0,0,0-.4.16l-1.58.729Zm1.778-4.783c-.169,0-.322,0-.458.011a2.118,2.118,0,0,0-.381.055v-.475a4.652,4.652,0,0,0,.839.067h.818l.066-.763h-.95a3.356,3.356,0,0,0-.375,0c-.126.008-.288.019-.486.034v-.5c.191.015.384.025.579.033s.411.011.647.011.458,0,.668-.011.41-.018.6-.033a3.833,3.833,0,0,0-.072.414q-.028.227-.061.547l-.232,2.418.625-.016q.27-.006.513-.027v1.91h-.64v-1.425H518.82v1.525h-.607v-2.01l.464.022.563.021L519,137.935a4,4,0,0,0-.06-.425c-.026-.121-.054-.267-.084-.436a4.381,4.381,0,0,0,1.055-.039,2.6,2.6,0,0,0,.934-.326.979.979,0,0,0,.177.271,1.666,1.666,0,0,0,.209.16c.074.044.1.087.094.127s-.064.054-.16.039c-.059-.007-.135-.013-.226-.017a1.984,1.984,0,0,0-.315.017c-.14.029-.3.057-.47.083l-.646.094.066.751h.851q.254,0,.447-.012a2.24,2.24,0,0,0,.392-.055v.453c-.125-.022-.254-.038-.386-.049s-.284-.017-.453-.017H519.6l.067.773h.707c.169,0,.318,0,.447,0a2.064,2.064,0,0,0,.392-.05v.453c-.125-.015-.243-.026-.353-.033s-.273-.012-.486-.012h-.685l.066.719h6.031l.055-.707h-.718c-.169,0-.32.005-.453.016s-.261.021-.386.028v-.464c.132.015.263.028.392.039s.278.016.447.016h.751l.067-.751Zm-2.341.5a4.667,4.667,0,0,0,.629-.641,2.1,2.1,0,0,0,.171.155,1.629,1.629,0,0,0,.227.144c.059.037.083.073.072.11s-.057.063-.138.078a.717.717,0,0,0-.188.093q-.111.072-.42.293c.206.133.4.262.574.387s.325.232.442.32l-.375.32a3.838,3.838,0,0,0-.42-.375c-.17-.133-.353-.269-.552-.409-.125.1-.273.215-.442.337s-.368.267-.6.436a2.635,2.635,0,0,1-.165-.226.645.645,0,0,0-.221-.171q.321-.144.58-.287a4.835,4.835,0,0,0,.5-.321q-.187-.121-.381-.232t-.381-.21l.276-.3Q522.388,138.809,522.808,139.073Zm0-1.988a5.226,5.226,0,0,0,.673-.718,1.934,1.934,0,0,0,.222.227,1.421,1.421,0,0,0,.232.138c.036.022.051.046.043.071s-.043.046-.11.061a.226.226,0,0,0-.088.017.668.668,0,0,0-.122.066c-.052.033-.117.081-.2.144l-.309.237q.243.165.458.326c.144.107.278.208.4.3l-.365.375q-.21-.22-.409-.4a3.979,3.979,0,0,0-.419-.337c-.126.1-.271.221-.437.354s-.351.283-.557.452a.876.876,0,0,0-.122-.215.816.816,0,0,0-.21-.171c.184-.111.358-.217.52-.32a5.49,5.49,0,0,0,.464-.332,4.692,4.692,0,0,0-.415-.26q-.194-.1-.414-.215l.265-.4q.232.143.42.275T522.808,137.085Z" fill="#fff"/><path d="M531.368,138.543c.272,0,.5-.007.673-.022a5.549,5.549,0,0,0,.553-.077v.762a5.332,5.332,0,0,0-.547-.078c-.173-.014-.4-.022-.679-.022v1.16q.254.22.453.392c.132.114.256.227.37.337s.225.219.331.326l.337.337-.552.419c-.089-.139-.17-.261-.243-.364s-.148-.2-.221-.282l-.221-.248c-.074-.081-.159-.17-.254-.265v3.324q0,.331.006.6c0,.176.009.344.016.5s.017.316.027.474.024.326.04.5h-.8c.015-.177.027-.345.039-.5s.02-.318.028-.48.012-.331.016-.508.005-.372.005-.586v-3.413q-.132.387-.276.729t-.3.669c-.1.217-.214.434-.331.651s-.247.44-.387.669a1.179,1.179,0,0,0-.354-.271,1.387,1.387,0,0,0-.375-.116,7.731,7.731,0,0,0,.624-.823,10.288,10.288,0,0,0,.569-.972,10.753,10.753,0,0,0,.475-1.055,10.97,10.97,0,0,0,.353-1.06v-.144c-.257,0-.473,0-.646.006s-.326.009-.458.016-.252.017-.359.028-.219.027-.337.05v-.762c.118.022.228.038.331.049s.221.02.354.028.287.013.464.016.394.006.651.006q-.011-.916-.038-1.452t-.072-.856a2.913,2.913,0,0,0,.425.077c.144.014.278.022.4.022s.172.02.182.061-.027.112-.115.215a.688.688,0,0,0-.127.3,2.2,2.2,0,0,0-.039.442Zm4.352,5.876a4.866,4.866,0,0,1-.575.508,7.247,7.247,0,0,1-.717.475q-.4.233-.884.464t-1.094.475a.96.96,0,0,0-.209-.381,1.209,1.209,0,0,0-.387-.249,10.421,10.421,0,0,0,1.944-.723,5.622,5.622,0,0,0,1.447-1.044,7.52,7.52,0,0,1-.856-1.148,8.085,8.085,0,0,1-.646-1.293l.585-.265a8.555,8.555,0,0,0,.569,1.21,5.6,5.6,0,0,0,.756,1.032,5.158,5.158,0,0,0,.354-.475,3.159,3.159,0,0,0,.182-.342,4.116,4.116,0,0,0,.193-.486q.088-.266.155-.558a3.825,3.825,0,0,0,.088-.558,3.2,3.2,0,0,0,.431.227,2.955,2.955,0,0,0,.343.116c.1.029.156.071.16.127s-.068.123-.216.2c-.014.015-.031.033-.049.055a1.031,1.031,0,0,0-.088.144c-.041.074-.1.184-.166.331s-.168.35-.293.608a6.106,6.106,0,0,1-.619,1.06,8.133,8.133,0,0,0,1.431,1.011,6.35,6.35,0,0,0,1.463.591,1.51,1.51,0,0,0-.336.331,1.159,1.159,0,0,0-.172.375c-.287-.125-.556-.253-.806-.386s-.486-.273-.707-.42-.436-.3-.646-.469S535.933,144.618,535.72,144.419Zm-.818-4.926c.081.029.115.074.1.132s-.081.1-.2.133a.245.245,0,0,0-.077.033.533.533,0,0,0-.094.094c-.041.048-.1.118-.172.21s-.169.219-.287.381c-.073.1-.141.184-.2.265s-.131.164-.2.249-.157.174-.249.27-.2.207-.326.332a1.2,1.2,0,0,0-.237-.282,1.133,1.133,0,0,0-.348-.172q.309-.241.53-.425a3.228,3.228,0,0,0,.4-.4,4.194,4.194,0,0,0,.358-.5q.177-.287.409-.74a2.505,2.505,0,0,0,.293.254A1.163,1.163,0,0,0,534.9,139.493Zm3.9-.685c-.2-.015-.39-.027-.574-.039s-.388-.018-.613-.022l-.784-.011q-.447,0-1.077,0-.531,0-.928,0l-.723.011c-.218,0-.418.012-.6.022s-.375.024-.574.039v-.7c.2.015.39.028.574.039s.385.018.6.022l.723.011q.4.006.928.006.618,0,1.066-.006l.789-.011q.344-.006.619-.022c.184-.011.376-.024.574-.039Zm-3.092-.74a4.474,4.474,0,0,0-.58-.762,5.8,5.8,0,0,0-.79-.707l.442-.442a9.544,9.544,0,0,1,.84.762q.375.387.651.729Zm2.6,3.468a11.411,11.411,0,0,0-.834-.977,11.665,11.665,0,0,0-1.055-.967l.431-.453q.585.52,1.06.978t.939.944Z" fill="#fff"/><circle cx="14.509" cy="14.509" r="14.509" transform="translate(464.261 128.094)" fill="#cece5b"/><line y2="15.841" transform="translate(472.664 135.249)" fill="none" stroke="#2f6668" stroke-miterlimit="10" stroke-width="0.5"/><path d="M487.918,143.756H472.957V136h14.961l-3.879,3.879Z" fill="#da6934" stroke="#da6934" stroke-miterlimit="10" stroke-width="0.25"/><path d="M549.03,143.594l4.456-5.2h-8.911Z" fill="#7f7f7f" stroke="#7f7f7f" stroke-miterlimit="10" stroke-width="0.25"/></g></svg>